<?xml version="1.0" encoding="utf-8" standalone="no"?>
<!DOCTYPE svg PUBLIC "-//W3C//DTD SVG 1.1//EN"
  "http://www.w3.org/Graphics/SVG/1.1/DTD/svg11.dtd">
<!-- Created with matplotlib (https://matplotlib.org/) -->
<svg height="711.737813pt" version="1.1" viewBox="0 0 568.017813 711.737813" width="568.017813pt" xmlns="http://www.w3.org/2000/svg" xmlns:xlink="http://www.w3.org/1999/xlink">
 <defs>
  <style type="text/css">
*{stroke-linecap:butt;stroke-linejoin:round;}
  </style>
 </defs>
 <g id="figure_1">
  <g id="patch_1">
   <path d="M 0 711.737813 
L 568.017813 711.737813 
L 568.017813 0 
L 0 0 
z
" style="fill:none;"/>
  </g>
  <g id="axes_1">
   <g id="patch_2">
    <path d="M 76.667813 318.5 
L 560.817812 318.5 
L 560.817812 7.2 
L 76.667813 7.2 
z
" style="fill:#ffffff;"/>
   </g>
   <g id="matplotlib.axis_1">
    <g id="xtick_1">
     <g id="line2d_1">
      <path clip-path="url(#p777ffe75ad)" d="M 93.172926 318.5 
L 93.172926 7.2 
" style="fill:none;stroke:#b0b0b0;stroke-dasharray:0.8,1.32;stroke-dashoffset:0;stroke-width:0.8;"/>
     </g>
     <g id="line2d_2">
      <defs>
       <path d="M 0 0 
L 0 3.5 
" id="mb664c23a79" style="stroke:#000000;stroke-width:0.8;"/>
      </defs>
      <g>
       <use style="stroke:#000000;stroke-width:0.8;" x="93.172926" xlink:href="#mb664c23a79" y="318.5"/>
      </g>
     </g>
     <g id="text_1">
      <!-- 1995 -->
      <defs>
       <path d="M 12.40625 8.296875 
L 28.515625 8.296875 
L 28.515625 63.921875 
L 10.984375 60.40625 
L 10.984375 69.390625 
L 28.421875 72.90625 
L 38.28125 72.90625 
L 38.28125 8.296875 
L 54.390625 8.296875 
L 54.390625 0 
L 12.40625 0 
z
" id="DejaVuSans-49"/>
       <path d="M 10.984375 1.515625 
L 10.984375 10.5 
Q 14.703125 8.734375 18.5 7.8125 
Q 22.3125 6.890625 25.984375 6.890625 
Q 35.75 6.890625 40.890625 13.453125 
Q 46.046875 20.015625 46.78125 33.40625 
Q 43.953125 29.203125 39.59375 26.953125 
Q 35.25 24.703125 29.984375 24.703125 
Q 19.046875 24.703125 12.671875 31.3125 
Q 6.296875 37.9375 6.296875 49.421875 
Q 6.296875 60.640625 12.9375 67.421875 
Q 19.578125 74.21875 30.609375 74.21875 
Q 43.265625 74.21875 49.921875 64.515625 
Q 56.59375 54.828125 56.59375 36.375 
Q 56.59375 19.140625 48.40625 8.859375 
Q 40.234375 -1.421875 26.421875 -1.421875 
Q 22.703125 -1.421875 18.890625 -0.6875 
Q 15.09375 0.046875 10.984375 1.515625 
z
M 30.609375 32.421875 
Q 37.25 32.421875 41.125 36.953125 
Q 45.015625 41.5 45.015625 49.421875 
Q 45.015625 57.28125 41.125 61.84375 
Q 37.25 66.40625 30.609375 66.40625 
Q 23.96875 66.40625 20.09375 61.84375 
Q 16.21875 57.28125 16.21875 49.421875 
Q 16.21875 41.5 20.09375 36.953125 
Q 23.96875 32.421875 30.609375 32.421875 
z
" id="DejaVuSans-57"/>
       <path d="M 10.796875 72.90625 
L 49.515625 72.90625 
L 49.515625 64.59375 
L 19.828125 64.59375 
L 19.828125 46.734375 
Q 21.96875 47.46875 24.109375 47.828125 
Q 26.265625 48.1875 28.421875 48.1875 
Q 40.625 48.1875 47.75 41.5 
Q 54.890625 34.8125 54.890625 23.390625 
Q 54.890625 11.625 47.5625 5.09375 
Q 40.234375 -1.421875 26.90625 -1.421875 
Q 22.3125 -1.421875 17.546875 -0.640625 
Q 12.796875 0.140625 7.71875 1.703125 
L 7.71875 11.625 
Q 12.109375 9.234375 16.796875 8.0625 
Q 21.484375 6.890625 26.703125 6.890625 
Q 35.15625 6.890625 40.078125 11.328125 
Q 45.015625 15.765625 45.015625 23.390625 
Q 45.015625 31 40.078125 35.4375 
Q 35.15625 39.890625 26.703125 39.890625 
Q 22.75 39.890625 18.8125 39.015625 
Q 14.890625 38.140625 10.796875 36.28125 
z
" id="DejaVuSans-53"/>
      </defs>
      <g transform="translate(75.357926 336.137812)scale(0.14 -0.14)">
       <use xlink:href="#DejaVuSans-49"/>
       <use x="63.623047" xlink:href="#DejaVuSans-57"/>
       <use x="127.246094" xlink:href="#DejaVuSans-57"/>
       <use x="190.869141" xlink:href="#DejaVuSans-53"/>
      </g>
     </g>
    </g>
    <g id="xtick_2">
     <g id="line2d_3">
      <path clip-path="url(#p777ffe75ad)" d="M 148.189972 318.5 
L 148.189972 7.2 
" style="fill:none;stroke:#b0b0b0;stroke-dasharray:0.8,1.32;stroke-dashoffset:0;stroke-width:0.8;"/>
     </g>
     <g id="line2d_4">
      <g>
       <use style="stroke:#000000;stroke-width:0.8;" x="148.189972" xlink:href="#mb664c23a79" y="318.5"/>
      </g>
     </g>
     <g id="text_2">
      <!-- 2000 -->
      <defs>
       <path d="M 19.1875 8.296875 
L 53.609375 8.296875 
L 53.609375 0 
L 7.328125 0 
L 7.328125 8.296875 
Q 12.9375 14.109375 22.625 23.890625 
Q 32.328125 33.6875 34.8125 36.53125 
Q 39.546875 41.84375 41.421875 45.53125 
Q 43.3125 49.21875 43.3125 52.78125 
Q 43.3125 58.59375 39.234375 62.25 
Q 35.15625 65.921875 28.609375 65.921875 
Q 23.96875 65.921875 18.8125 64.3125 
Q 13.671875 62.703125 7.8125 59.421875 
L 7.8125 69.390625 
Q 13.765625 71.78125 18.9375 73 
Q 24.125 74.21875 28.421875 74.21875 
Q 39.75 74.21875 46.484375 68.546875 
Q 53.21875 62.890625 53.21875 53.421875 
Q 53.21875 48.921875 51.53125 44.890625 
Q 49.859375 40.875 45.40625 35.40625 
Q 44.1875 33.984375 37.640625 27.21875 
Q 31.109375 20.453125 19.1875 8.296875 
z
" id="DejaVuSans-50"/>
       <path d="M 31.78125 66.40625 
Q 24.171875 66.40625 20.328125 58.90625 
Q 16.5 51.421875 16.5 36.375 
Q 16.5 21.390625 20.328125 13.890625 
Q 24.171875 6.390625 31.78125 6.390625 
Q 39.453125 6.390625 43.28125 13.890625 
Q 47.125 21.390625 47.125 36.375 
Q 47.125 51.421875 43.28125 58.90625 
Q 39.453125 66.40625 31.78125 66.40625 
z
M 31.78125 74.21875 
Q 44.046875 74.21875 50.515625 64.515625 
Q 56.984375 54.828125 56.984375 36.375 
Q 56.984375 17.96875 50.515625 8.265625 
Q 44.046875 -1.421875 31.78125 -1.421875 
Q 19.53125 -1.421875 13.0625 8.265625 
Q 6.59375 17.96875 6.59375 36.375 
Q 6.59375 54.828125 13.0625 64.515625 
Q 19.53125 74.21875 31.78125 74.21875 
z
" id="DejaVuSans-48"/>
      </defs>
      <g transform="translate(130.374972 336.137812)scale(0.14 -0.14)">
       <use xlink:href="#DejaVuSans-50"/>
       <use x="63.623047" xlink:href="#DejaVuSans-48"/>
       <use x="127.246094" xlink:href="#DejaVuSans-48"/>
       <use x="190.869141" xlink:href="#DejaVuSans-48"/>
      </g>
     </g>
    </g>
    <g id="xtick_3">
     <g id="line2d_5">
      <path clip-path="url(#p777ffe75ad)" d="M 203.207017 318.5 
L 203.207017 7.2 
" style="fill:none;stroke:#b0b0b0;stroke-dasharray:0.8,1.32;stroke-dashoffset:0;stroke-width:0.8;"/>
     </g>
     <g id="line2d_6">
      <g>
       <use style="stroke:#000000;stroke-width:0.8;" x="203.207017" xlink:href="#mb664c23a79" y="318.5"/>
      </g>
     </g>
     <g id="text_3">
      <!-- 2005 -->
      <g transform="translate(185.392017 336.137812)scale(0.14 -0.14)">
       <use xlink:href="#DejaVuSans-50"/>
       <use x="63.623047" xlink:href="#DejaVuSans-48"/>
       <use x="127.246094" xlink:href="#DejaVuSans-48"/>
       <use x="190.869141" xlink:href="#DejaVuSans-53"/>
      </g>
     </g>
    </g>
    <g id="xtick_4">
     <g id="line2d_7">
      <path clip-path="url(#p777ffe75ad)" d="M 258.224063 318.5 
L 258.224063 7.2 
" style="fill:none;stroke:#b0b0b0;stroke-dasharray:0.8,1.32;stroke-dashoffset:0;stroke-width:0.8;"/>
     </g>
     <g id="line2d_8">
      <g>
       <use style="stroke:#000000;stroke-width:0.8;" x="258.224063" xlink:href="#mb664c23a79" y="318.5"/>
      </g>
     </g>
     <g id="text_4">
      <!-- 2010 -->
      <g transform="translate(240.409063 336.137812)scale(0.14 -0.14)">
       <use xlink:href="#DejaVuSans-50"/>
       <use x="63.623047" xlink:href="#DejaVuSans-48"/>
       <use x="127.246094" xlink:href="#DejaVuSans-49"/>
       <use x="190.869141" xlink:href="#DejaVuSans-48"/>
      </g>
     </g>
    </g>
    <g id="xtick_5">
     <g id="line2d_9">
      <path clip-path="url(#p777ffe75ad)" d="M 313.241108 318.5 
L 313.241108 7.2 
" style="fill:none;stroke:#b0b0b0;stroke-dasharray:0.8,1.32;stroke-dashoffset:0;stroke-width:0.8;"/>
     </g>
     <g id="line2d_10">
      <g>
       <use style="stroke:#000000;stroke-width:0.8;" x="313.241108" xlink:href="#mb664c23a79" y="318.5"/>
      </g>
     </g>
     <g id="text_5">
      <!-- 2015 -->
      <g transform="translate(295.426108 336.137812)scale(0.14 -0.14)">
       <use xlink:href="#DejaVuSans-50"/>
       <use x="63.623047" xlink:href="#DejaVuSans-48"/>
       <use x="127.246094" xlink:href="#DejaVuSans-49"/>
       <use x="190.869141" xlink:href="#DejaVuSans-53"/>
      </g>
     </g>
    </g>
    <g id="xtick_6">
     <g id="line2d_11">
      <path clip-path="url(#p777ffe75ad)" d="M 368.258153 318.5 
L 368.258153 7.2 
" style="fill:none;stroke:#b0b0b0;stroke-dasharray:0.8,1.32;stroke-dashoffset:0;stroke-width:0.8;"/>
     </g>
     <g id="line2d_12">
      <g>
       <use style="stroke:#000000;stroke-width:0.8;" x="368.258153" xlink:href="#mb664c23a79" y="318.5"/>
      </g>
     </g>
     <g id="text_6">
      <!-- 2020 -->
      <g transform="translate(350.443153 336.137812)scale(0.14 -0.14)">
       <use xlink:href="#DejaVuSans-50"/>
       <use x="63.623047" xlink:href="#DejaVuSans-48"/>
       <use x="127.246094" xlink:href="#DejaVuSans-50"/>
       <use x="190.869141" xlink:href="#DejaVuSans-48"/>
      </g>
     </g>
    </g>
    <g id="xtick_7">
     <g id="line2d_13">
      <path clip-path="url(#p777ffe75ad)" d="M 423.275199 318.5 
L 423.275199 7.2 
" style="fill:none;stroke:#b0b0b0;stroke-dasharray:0.8,1.32;stroke-dashoffset:0;stroke-width:0.8;"/>
     </g>
     <g id="line2d_14">
      <g>
       <use style="stroke:#000000;stroke-width:0.8;" x="423.275199" xlink:href="#mb664c23a79" y="318.5"/>
      </g>
     </g>
     <g id="text_7">
      <!-- 2025 -->
      <g transform="translate(405.460199 336.137812)scale(0.14 -0.14)">
       <use xlink:href="#DejaVuSans-50"/>
       <use x="63.623047" xlink:href="#DejaVuSans-48"/>
       <use x="127.246094" xlink:href="#DejaVuSans-50"/>
       <use x="190.869141" xlink:href="#DejaVuSans-53"/>
      </g>
     </g>
    </g>
    <g id="xtick_8">
     <g id="line2d_15">
      <path clip-path="url(#p777ffe75ad)" d="M 478.292244 318.5 
L 478.292244 7.2 
" style="fill:none;stroke:#b0b0b0;stroke-dasharray:0.8,1.32;stroke-dashoffset:0;stroke-width:0.8;"/>
     </g>
     <g id="line2d_16">
      <g>
       <use style="stroke:#000000;stroke-width:0.8;" x="478.292244" xlink:href="#mb664c23a79" y="318.5"/>
      </g>
     </g>
     <g id="text_8">
      <!-- 2030 -->
      <defs>
       <path d="M 40.578125 39.3125 
Q 47.65625 37.796875 51.625 33 
Q 55.609375 28.21875 55.609375 21.1875 
Q 55.609375 10.40625 48.1875 4.484375 
Q 40.765625 -1.421875 27.09375 -1.421875 
Q 22.515625 -1.421875 17.65625 -0.515625 
Q 12.796875 0.390625 7.625 2.203125 
L 7.625 11.71875 
Q 11.71875 9.328125 16.59375 8.109375 
Q 21.484375 6.890625 26.8125 6.890625 
Q 36.078125 6.890625 40.9375 10.546875 
Q 45.796875 14.203125 45.796875 21.1875 
Q 45.796875 27.640625 41.28125 31.265625 
Q 36.765625 34.90625 28.71875 34.90625 
L 20.21875 34.90625 
L 20.21875 43.015625 
L 29.109375 43.015625 
Q 36.375 43.015625 40.234375 45.921875 
Q 44.09375 48.828125 44.09375 54.296875 
Q 44.09375 59.90625 40.109375 62.90625 
Q 36.140625 65.921875 28.71875 65.921875 
Q 24.65625 65.921875 20.015625 65.03125 
Q 15.375 64.15625 9.8125 62.3125 
L 9.8125 71.09375 
Q 15.4375 72.65625 20.34375 73.4375 
Q 25.25 74.21875 29.59375 74.21875 
Q 40.828125 74.21875 47.359375 69.109375 
Q 53.90625 64.015625 53.90625 55.328125 
Q 53.90625 49.265625 50.4375 45.09375 
Q 46.96875 40.921875 40.578125 39.3125 
z
" id="DejaVuSans-51"/>
      </defs>
      <g transform="translate(460.477244 336.137812)scale(0.14 -0.14)">
       <use xlink:href="#DejaVuSans-50"/>
       <use x="63.623047" xlink:href="#DejaVuSans-48"/>
       <use x="127.246094" xlink:href="#DejaVuSans-51"/>
       <use x="190.869141" xlink:href="#DejaVuSans-48"/>
      </g>
     </g>
    </g>
    <g id="xtick_9">
     <g id="line2d_17">
      <path clip-path="url(#p777ffe75ad)" d="M 533.30929 318.5 
L 533.30929 7.2 
" style="fill:none;stroke:#b0b0b0;stroke-dasharray:0.8,1.32;stroke-dashoffset:0;stroke-width:0.8;"/>
     </g>
     <g id="line2d_18">
      <g>
       <use style="stroke:#000000;stroke-width:0.8;" x="533.30929" xlink:href="#mb664c23a79" y="318.5"/>
      </g>
     </g>
     <g id="text_9">
      <!-- 2035 -->
      <g transform="translate(515.49429 336.137812)scale(0.14 -0.14)">
       <use xlink:href="#DejaVuSans-50"/>
       <use x="63.623047" xlink:href="#DejaVuSans-48"/>
       <use x="127.246094" xlink:href="#DejaVuSans-51"/>
       <use x="190.869141" xlink:href="#DejaVuSans-53"/>
      </g>
     </g>
    </g>
   </g>
   <g id="matplotlib.axis_2">
    <g id="ytick_1">
     <g id="line2d_19">
      <path clip-path="url(#p777ffe75ad)" d="M 76.667813 298.035902 
L 560.817812 298.035902 
" style="fill:none;stroke:#b0b0b0;stroke-dasharray:0.8,1.32;stroke-dashoffset:0;stroke-width:0.8;"/>
     </g>
     <g id="line2d_20">
      <defs>
       <path d="M 0 0 
L -3.5 0 
" id="me0f6513002" style="stroke:#000000;stroke-width:0.8;"/>
      </defs>
      <g>
       <use style="stroke:#000000;stroke-width:0.8;" x="76.667813" xlink:href="#me0f6513002" y="298.035902"/>
      </g>
     </g>
     <g id="text_10">
      <!-- 5320 -->
      <g transform="translate(34.037813 303.354809)scale(0.14 -0.14)">
       <use xlink:href="#DejaVuSans-53"/>
       <use x="63.623047" xlink:href="#DejaVuSans-51"/>
       <use x="127.246094" xlink:href="#DejaVuSans-50"/>
       <use x="190.869141" xlink:href="#DejaVuSans-48"/>
      </g>
     </g>
    </g>
    <g id="ytick_2">
     <g id="line2d_21">
      <path clip-path="url(#p777ffe75ad)" d="M 76.667813 232.676936 
L 560.817812 232.676936 
" style="fill:none;stroke:#b0b0b0;stroke-dasharray:0.8,1.32;stroke-dashoffset:0;stroke-width:0.8;"/>
     </g>
     <g id="line2d_22">
      <g>
       <use style="stroke:#000000;stroke-width:0.8;" x="76.667813" xlink:href="#me0f6513002" y="232.676936"/>
      </g>
     </g>
     <g id="text_11">
      <!-- 5340 -->
      <defs>
       <path d="M 37.796875 64.3125 
L 12.890625 25.390625 
L 37.796875 25.390625 
z
M 35.203125 72.90625 
L 47.609375 72.90625 
L 47.609375 25.390625 
L 58.015625 25.390625 
L 58.015625 17.1875 
L 47.609375 17.1875 
L 47.609375 0 
L 37.796875 0 
L 37.796875 17.1875 
L 4.890625 17.1875 
L 4.890625 26.703125 
z
" id="DejaVuSans-52"/>
      </defs>
      <g transform="translate(34.037813 237.995842)scale(0.14 -0.14)">
       <use xlink:href="#DejaVuSans-53"/>
       <use x="63.623047" xlink:href="#DejaVuSans-51"/>
       <use x="127.246094" xlink:href="#DejaVuSans-52"/>
       <use x="190.869141" xlink:href="#DejaVuSans-48"/>
      </g>
     </g>
    </g>
    <g id="ytick_3">
     <g id="line2d_23">
      <path clip-path="url(#p777ffe75ad)" d="M 76.667813 167.31797 
L 560.817812 167.31797 
" style="fill:none;stroke:#b0b0b0;stroke-dasharray:0.8,1.32;stroke-dashoffset:0;stroke-width:0.8;"/>
     </g>
     <g id="line2d_24">
      <g>
       <use style="stroke:#000000;stroke-width:0.8;" x="76.667813" xlink:href="#me0f6513002" y="167.31797"/>
      </g>
     </g>
     <g id="text_12">
      <!-- 5360 -->
      <defs>
       <path d="M 33.015625 40.375 
Q 26.375 40.375 22.484375 35.828125 
Q 18.609375 31.296875 18.609375 23.390625 
Q 18.609375 15.53125 22.484375 10.953125 
Q 26.375 6.390625 33.015625 6.390625 
Q 39.65625 6.390625 43.53125 10.953125 
Q 47.40625 15.53125 47.40625 23.390625 
Q 47.40625 31.296875 43.53125 35.828125 
Q 39.65625 40.375 33.015625 40.375 
z
M 52.59375 71.296875 
L 52.59375 62.3125 
Q 48.875 64.0625 45.09375 64.984375 
Q 41.3125 65.921875 37.59375 65.921875 
Q 27.828125 65.921875 22.671875 59.328125 
Q 17.53125 52.734375 16.796875 39.40625 
Q 19.671875 43.65625 24.015625 45.921875 
Q 28.375 48.1875 33.59375 48.1875 
Q 44.578125 48.1875 50.953125 41.515625 
Q 57.328125 34.859375 57.328125 23.390625 
Q 57.328125 12.15625 50.6875 5.359375 
Q 44.046875 -1.421875 33.015625 -1.421875 
Q 20.359375 -1.421875 13.671875 8.265625 
Q 6.984375 17.96875 6.984375 36.375 
Q 6.984375 53.65625 15.1875 63.9375 
Q 23.390625 74.21875 37.203125 74.21875 
Q 40.921875 74.21875 44.703125 73.484375 
Q 48.484375 72.75 52.59375 71.296875 
z
" id="DejaVuSans-54"/>
      </defs>
      <g transform="translate(34.037813 172.636876)scale(0.14 -0.14)">
       <use xlink:href="#DejaVuSans-53"/>
       <use x="63.623047" xlink:href="#DejaVuSans-51"/>
       <use x="127.246094" xlink:href="#DejaVuSans-54"/>
       <use x="190.869141" xlink:href="#DejaVuSans-48"/>
      </g>
     </g>
    </g>
    <g id="ytick_4">
     <g id="line2d_25">
      <path clip-path="url(#p777ffe75ad)" d="M 76.667813 101.959003 
L 560.817812 101.959003 
" style="fill:none;stroke:#b0b0b0;stroke-dasharray:0.8,1.32;stroke-dashoffset:0;stroke-width:0.8;"/>
     </g>
     <g id="line2d_26">
      <g>
       <use style="stroke:#000000;stroke-width:0.8;" x="76.667813" xlink:href="#me0f6513002" y="101.959003"/>
      </g>
     </g>
     <g id="text_13">
      <!-- 5380 -->
      <defs>
       <path d="M 31.78125 34.625 
Q 24.75 34.625 20.71875 30.859375 
Q 16.703125 27.09375 16.703125 20.515625 
Q 16.703125 13.921875 20.71875 10.15625 
Q 24.75 6.390625 31.78125 6.390625 
Q 38.8125 6.390625 42.859375 10.171875 
Q 46.921875 13.96875 46.921875 20.515625 
Q 46.921875 27.09375 42.890625 30.859375 
Q 38.875 34.625 31.78125 34.625 
z
M 21.921875 38.8125 
Q 15.578125 40.375 12.03125 44.71875 
Q 8.5 49.078125 8.5 55.328125 
Q 8.5 64.0625 14.71875 69.140625 
Q 20.953125 74.21875 31.78125 74.21875 
Q 42.671875 74.21875 48.875 69.140625 
Q 55.078125 64.0625 55.078125 55.328125 
Q 55.078125 49.078125 51.53125 44.71875 
Q 48 40.375 41.703125 38.8125 
Q 48.828125 37.15625 52.796875 32.3125 
Q 56.78125 27.484375 56.78125 20.515625 
Q 56.78125 9.90625 50.3125 4.234375 
Q 43.84375 -1.421875 31.78125 -1.421875 
Q 19.734375 -1.421875 13.25 4.234375 
Q 6.78125 9.90625 6.78125 20.515625 
Q 6.78125 27.484375 10.78125 32.3125 
Q 14.796875 37.15625 21.921875 38.8125 
z
M 18.3125 54.390625 
Q 18.3125 48.734375 21.84375 45.5625 
Q 25.390625 42.390625 31.78125 42.390625 
Q 38.140625 42.390625 41.71875 45.5625 
Q 45.3125 48.734375 45.3125 54.390625 
Q 45.3125 60.0625 41.71875 63.234375 
Q 38.140625 66.40625 31.78125 66.40625 
Q 25.390625 66.40625 21.84375 63.234375 
Q 18.3125 60.0625 18.3125 54.390625 
z
" id="DejaVuSans-56"/>
      </defs>
      <g transform="translate(34.037813 107.27791)scale(0.14 -0.14)">
       <use xlink:href="#DejaVuSans-53"/>
       <use x="63.623047" xlink:href="#DejaVuSans-51"/>
       <use x="127.246094" xlink:href="#DejaVuSans-56"/>
       <use x="190.869141" xlink:href="#DejaVuSans-48"/>
      </g>
     </g>
    </g>
    <g id="ytick_5">
     <g id="line2d_27">
      <path clip-path="url(#p777ffe75ad)" d="M 76.667813 36.600037 
L 560.817812 36.600037 
" style="fill:none;stroke:#b0b0b0;stroke-dasharray:0.8,1.32;stroke-dashoffset:0;stroke-width:0.8;"/>
     </g>
     <g id="line2d_28">
      <g>
       <use style="stroke:#000000;stroke-width:0.8;" x="76.667813" xlink:href="#me0f6513002" y="36.600037"/>
      </g>
     </g>
     <g id="text_14">
      <!-- 5400 -->
      <g transform="translate(34.037813 41.918943)scale(0.14 -0.14)">
       <use xlink:href="#DejaVuSans-53"/>
       <use x="63.623047" xlink:href="#DejaVuSans-52"/>
       <use x="127.246094" xlink:href="#DejaVuSans-48"/>
       <use x="190.869141" xlink:href="#DejaVuSans-48"/>
      </g>
     </g>
    </g>
    <g id="text_15">
     <!-- $\rho$ (mas) -->
     <defs>
      <path d="M 18.796875 44.921875 
Q 22.703125 49.90625 30.953125 54.296875 
Q 34.1875 56 43.0625 56 
Q 53.03125 56 57.71875 48.09375 
Q 62.40625 40.1875 59.90625 27.296875 
Q 57.375 14.40625 49.609375 6.484375 
Q 41.84375 -1.421875 31.890625 -1.421875 
Q 25.875 -1.421875 22.015625 0.984375 
Q 18.171875 3.328125 16.3125 8.203125 
L 10.640625 -20.796875 
L 1.609375 -20.796875 
L 10.890625 26.8125 
Q 13.09375 38.09375 18.796875 44.921875 
z
M 50.59375 27.296875 
Q 52.484375 37.203125 49.515625 42.875 
Q 46.53125 48.484375 39.40625 48.484375 
Q 32.28125 48.484375 27.09375 42.875 
Q 21.921875 37.203125 20.015625 27.296875 
Q 18.0625 17.390625 21.046875 11.71875 
Q 24.03125 6.109375 31.15625 6.109375 
Q 38.28125 6.109375 43.453125 11.71875 
Q 48.640625 17.390625 50.59375 27.296875 
z
" id="DejaVuSans-Oblique-961"/>
      <path id="DejaVuSans-32"/>
      <path d="M 31 75.875 
Q 24.46875 64.65625 21.28125 53.65625 
Q 18.109375 42.671875 18.109375 31.390625 
Q 18.109375 20.125 21.3125 9.0625 
Q 24.515625 -2 31 -13.1875 
L 23.1875 -13.1875 
Q 15.875 -1.703125 12.234375 9.375 
Q 8.59375 20.453125 8.59375 31.390625 
Q 8.59375 42.28125 12.203125 53.3125 
Q 15.828125 64.359375 23.1875 75.875 
z
" id="DejaVuSans-40"/>
      <path d="M 52 44.1875 
Q 55.375 50.25 60.0625 53.125 
Q 64.75 56 71.09375 56 
Q 79.640625 56 84.28125 50.015625 
Q 88.921875 44.046875 88.921875 33.015625 
L 88.921875 0 
L 79.890625 0 
L 79.890625 32.71875 
Q 79.890625 40.578125 77.09375 44.375 
Q 74.3125 48.1875 68.609375 48.1875 
Q 61.625 48.1875 57.5625 43.546875 
Q 53.515625 38.921875 53.515625 30.90625 
L 53.515625 0 
L 44.484375 0 
L 44.484375 32.71875 
Q 44.484375 40.625 41.703125 44.40625 
Q 38.921875 48.1875 33.109375 48.1875 
Q 26.21875 48.1875 22.15625 43.53125 
Q 18.109375 38.875 18.109375 30.90625 
L 18.109375 0 
L 9.078125 0 
L 9.078125 54.6875 
L 18.109375 54.6875 
L 18.109375 46.1875 
Q 21.1875 51.21875 25.484375 53.609375 
Q 29.78125 56 35.6875 56 
Q 41.65625 56 45.828125 52.96875 
Q 50 49.953125 52 44.1875 
z
" id="DejaVuSans-109"/>
      <path d="M 34.28125 27.484375 
Q 23.390625 27.484375 19.1875 25 
Q 14.984375 22.515625 14.984375 16.5 
Q 14.984375 11.71875 18.140625 8.90625 
Q 21.296875 6.109375 26.703125 6.109375 
Q 34.1875 6.109375 38.703125 11.40625 
Q 43.21875 16.703125 43.21875 25.484375 
L 43.21875 27.484375 
z
M 52.203125 31.203125 
L 52.203125 0 
L 43.21875 0 
L 43.21875 8.296875 
Q 40.140625 3.328125 35.546875 0.953125 
Q 30.953125 -1.421875 24.3125 -1.421875 
Q 15.921875 -1.421875 10.953125 3.296875 
Q 6 8.015625 6 15.921875 
Q 6 25.140625 12.171875 29.828125 
Q 18.359375 34.515625 30.609375 34.515625 
L 43.21875 34.515625 
L 43.21875 35.40625 
Q 43.21875 41.609375 39.140625 45 
Q 35.0625 48.390625 27.6875 48.390625 
Q 23 48.390625 18.546875 47.265625 
Q 14.109375 46.140625 10.015625 43.890625 
L 10.015625 52.203125 
Q 14.9375 54.109375 19.578125 55.046875 
Q 24.21875 56 28.609375 56 
Q 40.484375 56 46.34375 49.84375 
Q 52.203125 43.703125 52.203125 31.203125 
z
" id="DejaVuSans-97"/>
      <path d="M 44.28125 53.078125 
L 44.28125 44.578125 
Q 40.484375 46.53125 36.375 47.5 
Q 32.28125 48.484375 27.875 48.484375 
Q 21.1875 48.484375 17.84375 46.4375 
Q 14.5 44.390625 14.5 40.28125 
Q 14.5 37.15625 16.890625 35.375 
Q 19.28125 33.59375 26.515625 31.984375 
L 29.59375 31.296875 
Q 39.15625 29.25 43.1875 25.515625 
Q 47.21875 21.78125 47.21875 15.09375 
Q 47.21875 7.46875 41.1875 3.015625 
Q 35.15625 -1.421875 24.609375 -1.421875 
Q 20.21875 -1.421875 15.453125 -0.5625 
Q 10.6875 0.296875 5.421875 2 
L 5.421875 11.28125 
Q 10.40625 8.6875 15.234375 7.390625 
Q 20.0625 6.109375 24.8125 6.109375 
Q 31.15625 6.109375 34.5625 8.28125 
Q 37.984375 10.453125 37.984375 14.40625 
Q 37.984375 18.0625 35.515625 20.015625 
Q 33.0625 21.96875 24.703125 23.78125 
L 21.578125 24.515625 
Q 13.234375 26.265625 9.515625 29.90625 
Q 5.8125 33.546875 5.8125 39.890625 
Q 5.8125 47.609375 11.28125 51.796875 
Q 16.75 56 26.8125 56 
Q 31.78125 56 36.171875 55.265625 
Q 40.578125 54.546875 44.28125 53.078125 
z
" id="DejaVuSans-115"/>
      <path d="M 8.015625 75.875 
L 15.828125 75.875 
Q 23.140625 64.359375 26.78125 53.3125 
Q 30.421875 42.28125 30.421875 31.390625 
Q 30.421875 20.453125 26.78125 9.375 
Q 23.140625 -1.703125 15.828125 -13.1875 
L 8.015625 -13.1875 
Q 14.5 -2 17.703125 9.0625 
Q 20.90625 20.125 20.90625 31.390625 
Q 20.90625 42.671875 17.703125 53.65625 
Q 14.5 64.65625 8.015625 75.875 
z
" id="DejaVuSans-41"/>
     </defs>
     <g transform="translate(25.837813 201.35)rotate(-90)scale(0.2 -0.2)">
      <use transform="translate(0 0.125)" xlink:href="#DejaVuSans-Oblique-961"/>
      <use transform="translate(63.476562 0.125)" xlink:href="#DejaVuSans-32"/>
      <use transform="translate(95.263672 0.125)" xlink:href="#DejaVuSans-40"/>
      <use transform="translate(134.277344 0.125)" xlink:href="#DejaVuSans-109"/>
      <use transform="translate(231.689453 0.125)" xlink:href="#DejaVuSans-97"/>
      <use transform="translate(292.96875 0.125)" xlink:href="#DejaVuSans-115"/>
      <use transform="translate(345.068359 0.125)" xlink:href="#DejaVuSans-41"/>
     </g>
    </g>
   </g>
   <g id="line2d_29">
    <path clip-path="url(#p777ffe75ad)" d="M 98.674631 278.752911 
L 330.302172 145.595413 
L 538.810994 25.514212 
L 538.810994 25.514212 
" style="fill:none;stroke:#87ceeb;stroke-linecap:square;stroke-opacity:0.5;stroke-width:1.5;"/>
   </g>
   <g id="line2d_30">
    <path clip-path="url(#p777ffe75ad)" d="M 98.674631 284.856676 
L 123.554775 268.809575 
L 148.43492 253.027814 
L 173.094886 237.648575 
L 197.754853 222.532058 
L 222.194641 207.810742 
L 246.634429 193.349508 
L 270.854039 179.276137 
L 295.073648 165.460183 
L 319.07308 152.024737 
L 343.072511 138.844023 
L 366.851765 126.036446 
L 390.631018 113.480895 
L 414.190093 101.291094 
L 437.749168 89.35059 
L 461.308243 77.660344 
L 484.64714 66.327068 
L 507.986036 55.241295 
L 531.104755 44.505056 
L 538.810994 40.980647 
L 538.810994 40.980647 
" style="fill:none;stroke:#87ceeb;stroke-linecap:square;stroke-opacity:0.5;stroke-width:1.5;"/>
   </g>
   <g id="line2d_31">
    <path clip-path="url(#p777ffe75ad)" d="M 98.674631 300.356151 
L 116.949427 286.517714 
L 135.224224 272.959193 
L 153.278842 259.838457 
L 171.33346 246.990051 
L 189.388078 234.413547 
L 207.442697 222.108522 
L 225.497315 210.07456 
L 243.331755 198.45308 
L 261.166195 187.095305 
L 279.000635 176.000853 
L 296.835075 165.169349 
L 314.449336 154.729304 
L 332.063598 144.545043 
L 349.67786 134.61622 
L 367.292121 124.942496 
L 384.906383 115.523539 
L 402.520645 106.359019 
L 419.914728 97.558427 
L 437.308811 89.005332 
L 454.702895 80.699434 
L 472.096978 72.640438 
L 489.491062 64.828054 
L 506.664967 57.356234 
L 523.838872 50.124276 
L 538.810994 44.014993 
L 538.810994 44.014993 
" style="fill:none;stroke:#87ceeb;stroke-linecap:square;stroke-opacity:0.5;stroke-width:1.5;"/>
   </g>
   <g id="line2d_32">
    <path clip-path="url(#p777ffe75ad)" d="M 98.674631 286.333328 
L 125.096023 269.25026 
L 151.517416 252.431148 
L 177.71863 236.014202 
L 203.919844 219.859506 
L 229.90088 204.100842 
L 255.881916 188.60268 
L 281.642774 173.494367 
L 307.403632 158.644769 
L 332.944311 144.17879 
L 358.264812 130.091091 
L 383.585313 116.257132 
L 408.685636 102.795159 
L 433.785959 89.585028 
L 458.666104 76.740545 
L 483.546248 64.145966 
L 508.206215 51.910655 
L 531.985468 40.354486 
L 538.810994 37.075087 
L 538.810994 37.075087 
" style="fill:none;stroke:#87ceeb;stroke-linecap:square;stroke-opacity:0.5;stroke-width:1.5;"/>
   </g>
   <g id="line2d_33">
    <path clip-path="url(#p777ffe75ad)" d="M 98.674631 282.968678 
L 194.452179 225.927372 
L 289.78937 169.407034 
L 384.686205 113.405922 
L 479.142683 57.922265 
L 538.810994 23.006413 
L 538.810994 23.006413 
" style="fill:none;stroke:#87ceeb;stroke-linecap:square;stroke-opacity:0.5;stroke-width:1.5;"/>
   </g>
   <g id="line2d_34">
    <path clip-path="url(#p777ffe75ad)" d="M 98.674631 287.73091 
L 118.931032 273.959648 
L 139.187433 260.45449 
L 159.443833 247.214448 
L 179.700234 234.238544 
L 199.956635 221.525811 
L 220.213036 209.075291 
L 240.469437 196.886034 
L 260.725838 184.957102 
L 280.982239 173.287564 
L 301.23864 161.876499 
L 321.274863 150.842846 
L 341.311085 140.060311 
L 361.347308 129.528028 
L 381.383531 119.245138 
L 401.419753 109.210794 
L 421.455976 99.424153 
L 441.492199 89.884383 
L 461.528421 80.590658 
L 481.564644 71.54216 
L 501.600867 62.738081 
L 521.637089 54.177617 
L 538.810994 47.033373 
L 538.810994 47.033373 
" style="fill:none;stroke:#87ceeb;stroke-linecap:square;stroke-opacity:0.5;stroke-width:1.5;"/>
   </g>
   <g id="line2d_35">
    <path clip-path="url(#p777ffe75ad)" d="M 98.674631 291.684895 
L 120.252101 276.772758 
L 141.829572 262.129595 
L 163.407042 247.7557 
L 184.764335 233.793931 
L 206.121627 220.096549 
L 227.478919 206.663849 
L 248.616033 193.630525 
L 269.753147 180.857033 
L 290.890261 168.343664 
L 311.807197 156.216998 
L 332.724133 144.345627 
L 353.641068 132.729828 
L 374.558004 121.369877 
L 384.466026 116.078225 
L 384.686205 122.157933 
L 405.60314 111.149821 
L 426.520076 100.391427 
L 447.437012 89.882842 
L 468.353948 79.62417 
L 489.050705 69.719584 
L 509.747463 60.059925 
L 530.44422 50.645335 
L 538.810994 46.909033 
L 538.810994 46.909033 
" style="fill:none;stroke:#87ceeb;stroke-linecap:square;stroke-opacity:0.5;stroke-width:1.5;"/>
   </g>
   <g id="line2d_36">
    <path clip-path="url(#p777ffe75ad)" d="M 98.674631 285.365484 
L 138.526898 260.698182 
L 178.379165 236.292898 
L 218.231432 212.14791 
L 258.083699 188.261524 
L 298.156144 164.502226 
L 338.228589 141.001026 
L 378.301035 117.756267 
L 418.593658 94.640702 
L 458.886282 71.781119 
L 499.178906 49.175902 
L 538.810994 27.187865 
L 538.810994 27.187865 
" style="fill:none;stroke:#87ceeb;stroke-linecap:square;stroke-opacity:0.5;stroke-width:1.5;"/>
   </g>
   <g id="line2d_37">
    <path clip-path="url(#p777ffe75ad)" d="M 98.674631 290.194004 
L 120.912636 275.075314 
L 143.150641 260.223562 
L 165.388647 245.637616 
L 187.626652 231.316357 
L 209.864658 217.258678 
L 232.102663 203.463487 
L 254.340668 189.929704 
L 276.578674 176.656259 
L 298.816679 163.642097 
L 321.054684 150.886174 
L 343.29269 138.387458 
L 365.530695 126.144929 
L 387.7687 114.157577 
L 410.006706 102.424407 
L 432.244711 90.94443 
L 454.482717 79.716674 
L 476.500544 68.847623 
L 498.518371 58.223952 
L 520.536198 47.844747 
L 538.810994 39.415017 
L 538.810994 39.415017 
" style="fill:none;stroke:#87ceeb;stroke-linecap:square;stroke-opacity:0.5;stroke-width:1.5;"/>
   </g>
   <g id="line2d_38">
    <path clip-path="url(#p777ffe75ad)" d="M 98.674631 283.889679 
L 178.158986 236.116205 
L 256.982807 188.998481 
L 335.146094 142.534349 
L 412.648845 96.721551 
L 489.270883 51.686771 
L 538.810994 22.707674 
L 538.810994 22.707674 
" style="fill:none;stroke:#87ceeb;stroke-linecap:square;stroke-opacity:0.5;stroke-width:1.5;"/>
   </g>
   <g id="line2d_39">
    <path clip-path="url(#p777ffe75ad)" d="M 98.674631 304.35 
L 117.83014 289.6634 
L 136.98565 275.256973 
L 156.141159 261.129856 
L 175.296669 247.281195 
L 194.232 233.864561 
L 213.167332 220.718386 
L 232.102663 207.84187 
L 251.037994 195.234222 
L 269.973325 182.894659 
L 288.908657 170.822406 
L 307.62381 159.152443 
L 326.338963 147.742126 
L 345.054116 136.590731 
L 363.769269 125.697538 
L 382.484422 115.061837 
L 401.199575 104.682923 
L 419.914728 94.5601 
L 438.409703 84.807283 
L 456.904678 75.303234 
L 475.399652 66.0473 
L 493.894627 57.038836 
L 512.389602 48.277201 
L 530.884577 39.761763 
L 538.810994 36.187501 
L 538.810994 36.187501 
" style="fill:none;stroke:#87ceeb;stroke-linecap:square;stroke-opacity:0.5;stroke-width:1.5;"/>
   </g>
   <g id="line2d_40">
    <path clip-path="url(#p777ffe75ad)" d="M 98.674631 301.611139 
L 118.050319 286.946369 
L 137.426006 272.560418 
L 156.581516 258.612226 
L 175.737026 244.936949 
L 194.892535 231.53479 
L 214.048045 218.405949 
L 232.983376 205.696839 
L 251.918707 193.255197 
L 270.854039 181.081223 
L 289.569192 169.31202 
L 294.413114 166.308526 
L 294.633292 166.871685 
L 313.348445 155.442496 
L 332.063598 144.274631 
L 350.558573 133.495055 
L 369.053547 122.971036 
L 387.548522 112.702747 
L 406.043497 102.690361 
L 424.318293 93.048694 
L 442.59309 83.657217 
L 460.867886 74.516102 
L 479.142683 65.625521 
L 497.197301 57.088252 
L 515.251919 48.795855 
L 533.306538 40.748503 
L 538.810994 38.343811 
L 538.810994 38.343811 
" style="fill:none;stroke:#87ceeb;stroke-linecap:square;stroke-opacity:0.5;stroke-width:1.5;"/>
   </g>
   <g id="line2d_41">
    <path clip-path="url(#p777ffe75ad)" d="M 98.674631 298.688741 
L 118.050319 284.385492 
L 137.646185 270.195265 
L 157.021872 256.455349 
L 176.39756 242.988084 
L 195.773248 229.792461 
L 215.148936 216.867478 
L 234.524624 204.212138 
L 253.680133 191.964704 
L 272.835643 179.9789 
L 291.991153 168.25378 
L 311.146662 156.788404 
L 330.302172 145.581837 
L 349.457681 134.633149 
L 368.613191 123.941416 
L 387.7687 113.505719 
L 406.92421 103.325145 
L 425.859541 93.51144 
L 444.794873 83.945267 
L 463.730204 74.625758 
L 482.665535 65.552051 
L 501.600867 56.723289 
L 520.536198 48.138619 
L 538.810994 40.084088 
L 538.810994 40.084088 
" style="fill:none;stroke:#87ceeb;stroke-linecap:square;stroke-opacity:0.5;stroke-width:1.5;"/>
   </g>
   <g id="line2d_42">
    <path clip-path="url(#p777ffe75ad)" d="M 98.674631 284.517262 
L 141.169037 258.420566 
L 183.443265 232.718831 
L 225.497315 207.409665 
L 267.551365 182.360185 
L 309.385236 157.70116 
L 350.998929 133.43015 
L 392.392444 109.544699 
L 433.565781 86.042338 
L 474.518939 62.920578 
L 515.251919 40.176916 
L 538.810994 27.13863 
L 538.810994 27.13863 
" style="fill:none;stroke:#87ceeb;stroke-linecap:square;stroke-opacity:0.5;stroke-width:1.5;"/>
   </g>
   <g id="line2d_43">
    <path clip-path="url(#p777ffe75ad)" d="M 98.674631 292.529088 
L 123.114419 275.843177 
L 147.334029 259.57649 
L 171.553638 243.578738 
L 195.55307 227.992936 
L 219.332323 212.812993 
L 242.451042 198.313192 
L 266.010117 183.777639 
L 289.569192 169.502767 
L 312.908088 155.619512 
L 336.246985 141.994422 
L 359.365703 128.753543 
L 382.484422 115.768272 
L 405.382962 103.159766 
L 428.281502 90.804273 
L 450.959864 78.818066 
L 473.638226 67.082236 
L 496.316588 55.597891 
L 518.774772 44.473972 
L 538.810994 34.75966 
L 538.810994 34.75966 
" style="fill:none;stroke:#87ceeb;stroke-linecap:square;stroke-opacity:0.5;stroke-width:1.5;"/>
   </g>
   <g id="line2d_44">
    <path clip-path="url(#p777ffe75ad)" d="M 98.674631 304.179027 
L 118.050319 289.335921 
L 137.205828 274.938786 
L 156.361338 260.817582 
L 175.516847 246.972522 
L 194.672357 233.403812 
L 213.607688 220.262868 
L 232.543019 207.392347 
L 251.478351 194.792437 
L 270.193504 182.605127 
L 288.908657 170.682521 
L 307.62381 159.024789 
L 326.118785 147.764584 
L 344.613759 136.763371 
L 363.108734 126.021301 
L 381.383531 115.661788 
L 399.658327 105.555565 
L 417.933124 95.702764 
L 436.20792 86.103516 
L 454.262538 76.869033 
L 472.317156 67.88227 
L 490.371775 59.143342 
L 508.426393 50.652359 
L 526.260833 42.508457 
L 538.810994 36.922708 
L 538.810994 36.922708 
" style="fill:none;stroke:#87ceeb;stroke-linecap:square;stroke-opacity:0.5;stroke-width:1.5;"/>
   </g>
   <g id="line2d_45">
    <path clip-path="url(#p777ffe75ad)" d="M 98.674631 299.893011 
L 119.811745 284.383895 
L 140.72868 269.310353 
L 161.645616 254.510194 
L 182.342374 240.135685 
L 203.039131 226.030382 
L 223.735889 212.195055 
L 244.212468 198.773351 
L 264.689047 185.617411 
L 284.945448 172.86516 
L 305.201849 160.374444 
L 325.45825 148.14599 
L 345.494472 136.309165 
L 365.530695 124.730344 
L 385.346739 113.533217 
L 405.162784 102.589822 
L 424.978828 91.900839 
L 444.574694 81.581479 
L 464.17056 71.512234 
L 483.766427 61.693765 
L 503.142114 52.232827 
L 522.517802 43.018343 
L 538.810994 35.461029 
L 538.810994 35.461029 
" style="fill:none;stroke:#87ceeb;stroke-linecap:square;stroke-opacity:0.5;stroke-width:1.5;"/>
   </g>
   <g id="line2d_46">
    <path clip-path="url(#p777ffe75ad)" d="M 98.674631 299.822516 
L 119.371388 284.62732 
L 139.847967 269.867471 
L 160.324547 255.379276 
L 180.801126 241.162172 
L 201.277705 227.215607 
L 221.754284 213.539044 
L 242.230863 200.131957 
L 262.487264 187.133675 
L 282.743665 174.398118 
L 303.000066 161.924814 
L 323.256467 149.713303 
L 343.512868 137.763135 
L 363.549091 126.199529 
L 383.585313 114.890776 
L 403.621536 103.836475 
L 423.657759 93.036236 
L 443.693981 82.489681 
L 463.730204 72.19644 
L 483.546248 62.265116 
L 503.362293 52.580885 
L 523.178337 43.14342 
L 538.810994 35.872224 
L 538.810994 35.872224 
" style="fill:none;stroke:#87ceeb;stroke-linecap:square;stroke-opacity:0.5;stroke-width:1.5;"/>
   </g>
   <g id="line2d_47">
    <path clip-path="url(#p777ffe75ad)" d="M 98.674631 296.802153 
L 120.031923 281.495493 
L 141.389215 266.462849 
L 162.526329 251.855537 
L 183.663443 237.517744 
L 204.800557 223.450031 
L 225.717493 209.795288 
L 246.634429 196.406136 
L 267.331186 183.419878 
L 288.027944 170.694732 
L 308.724701 158.231243 
L 329.20128 146.158376 
L 349.67786 134.342695 
L 370.154439 122.784735 
L 390.41084 111.605162 
L 410.667241 100.678848 
L 430.923642 90.006322 
L 450.959864 79.699984 
L 470.996087 69.64298 
L 491.03231 59.835829 
L 510.848354 50.382708 
L 530.664398 41.174995 
L 538.810994 37.460904 
L 538.810994 37.460904 
" style="fill:none;stroke:#87ceeb;stroke-linecap:square;stroke-opacity:0.5;stroke-width:1.5;"/>
   </g>
   <g id="line2d_48">
    <path clip-path="url(#p777ffe75ad)" d="M 98.674631 283.224216 
L 469.454839 62.589361 
L 538.810994 21.35 
L 538.810994 21.35 
" style="fill:none;stroke:#87ceeb;stroke-linecap:square;stroke-opacity:0.5;stroke-width:1.5;"/>
   </g>
   <g id="line2d_49">
    <path clip-path="url(#p777ffe75ad)" d="M 98.674631 282.588131 
L 140.288324 257.385058 
L 181.902017 232.441281 
L 223.735889 207.624367 
L 265.789938 182.935899 
L 307.843988 158.504685 
L 350.118216 134.202359 
L 392.612622 110.030471 
L 435.107029 86.113815 
L 477.821613 62.328019 
L 520.756376 38.674599 
L 538.810994 28.803804 
L 538.810994 28.803804 
" style="fill:none;stroke:#87ceeb;stroke-linecap:square;stroke-opacity:0.5;stroke-width:1.5;"/>
   </g>
   <g id="line2d_50">
    <path clip-path="url(#p777ffe75ad)" d="M 98.674631 295.737628 
L 119.15121 281.046103 
L 139.627789 266.626988 
L 160.104368 252.480696 
L 180.360769 238.755363 
L 200.61717 225.29783 
L 220.873571 212.108503 
L 240.909794 199.326788 
L 260.946016 186.808276 
L 280.982239 174.553367 
L 300.798283 162.692793 
L 320.614328 151.090841 
L 340.430372 139.747901 
L 360.026238 128.78609 
L 379.622104 118.078332 
L 399.217971 107.625012 
L 418.593658 97.539686 
L 437.969346 87.703861 
L 457.345034 78.117912 
L 476.500544 68.886897 
L 495.656053 59.900846 
L 514.811563 51.160127 
L 533.967072 42.665108 
L 538.810994 40.555908 
L 538.810994 40.555908 
" style="fill:none;stroke:#87ceeb;stroke-linecap:square;stroke-opacity:0.5;stroke-width:1.5;"/>
   </g>
   <g id="line2d_51">
    <path clip-path="url(#p777ffe75ad)" d="M 98.674631 282.441482 
L 341.311085 138.838444 
L 538.810994 21.762706 
L 538.810994 21.762706 
" style="fill:none;stroke:#87ceeb;stroke-linecap:square;stroke-opacity:0.5;stroke-width:1.5;"/>
   </g>
   <g id="line2d_52">
    <path clip-path="url(#p777ffe75ad)" d="M 98.674631 280.416395 
L 271.95493 179.523971 
L 445.235229 78.888875 
L 538.810994 24.650346 
L 538.810994 24.650346 
" style="fill:none;stroke:#87ceeb;stroke-linecap:square;stroke-opacity:0.5;stroke-width:1.5;"/>
   </g>
   <g id="line2d_53">
    <path clip-path="url(#p777ffe75ad)" d="M 98.674631 295.599023 
L 117.609962 281.79794 
L 136.545293 268.273861 
L 155.260446 255.179037 
L 173.975599 242.354436 
L 192.690752 229.799881 
L 211.405905 217.515202 
L 229.90088 205.640021 
L 248.395855 194.028091 
L 266.89083 182.679268 
L 285.385804 171.593412 
L 303.660601 160.89769 
L 321.935397 150.45846 
L 340.210194 140.275605 
L 358.48499 130.349013 
L 376.539609 120.793568 
L 394.594227 111.488051 
L 412.648845 102.432371 
L 430.703463 93.626444 
L 448.537903 85.17303 
L 466.372343 76.963165 
L 484.206783 68.996782 
L 502.041223 61.273817 
L 519.875663 53.794215 
L 537.710103 46.557921 
L 538.810994 46.119209 
L 538.810994 46.119209 
" style="fill:none;stroke:#87ceeb;stroke-linecap:square;stroke-opacity:0.5;stroke-width:1.5;"/>
   </g>
   <g id="line2d_54">
    <path clip-path="url(#p777ffe75ad)" d="M 98.674631 286.644557 
L 137.866363 262.080985 
L 176.617739 238.054389 
L 215.148936 214.424297 
L 253.459955 191.188935 
L 291.550796 168.346496 
L 329.421459 145.895138 
L 367.071943 123.832982 
L 404.502249 102.158117 
L 441.492199 80.99381 
L 478.26197 60.209805 
L 514.811563 39.804068 
L 538.810994 26.543973 
L 538.810994 26.543973 
" style="fill:none;stroke:#87ceeb;stroke-linecap:square;stroke-opacity:0.5;stroke-width:1.5;"/>
   </g>
   <g id="line2d_55">
    <path clip-path="url(#p777ffe75ad)" d="M 98.674631 292.918402 
L 117.609962 279.357183 
L 136.545293 266.06997 
L 155.260446 253.206483 
L 173.975599 240.610614 
L 192.690752 228.28233 
L 211.405905 216.221592 
L 229.90088 204.565544 
L 248.395855 193.170694 
L 266.89083 182.036987 
L 285.385804 171.164368 
L 303.660601 160.677568 
L 321.935397 150.44555 
L 340.210194 140.468247 
L 358.48499 130.745585 
L 376.539609 121.390044 
L 394.594227 112.282889 
L 412.648845 103.424038 
L 430.703463 94.813401 
L 448.758081 86.450887 
L 466.592521 78.433864 
L 484.426961 70.658757 
L 502.261401 63.125467 
L 520.095841 55.833889 
L 537.930281 48.783914 
L 538.810994 48.442025 
L 538.810994 48.442025 
" style="fill:none;stroke:#87ceeb;stroke-linecap:square;stroke-opacity:0.5;stroke-width:1.5;"/>
   </g>
   <g id="line2d_56">
    <path clip-path="url(#p777ffe75ad)" d="M 98.674631 294.404575 
L 124.435488 276.713458 
L 149.976168 259.441058 
L 175.516847 242.436349 
L 200.837348 225.843786 
L 226.15785 209.516939 
L 251.258172 193.595621 
L 276.358495 177.938001 
L 301.23864 162.679246 
L 326.118785 147.682132 
L 350.778751 133.077175 
L 375.438717 118.731761 
L 399.878505 104.771751 
L 424.098115 91.19144 
L 448.317725 77.86513 
L 472.317156 64.911713 
L 496.316588 52.210088 
L 520.095841 39.874509 
L 538.810994 30.341381 
L 538.810994 30.341381 
" style="fill:none;stroke:#87ceeb;stroke-linecap:square;stroke-opacity:0.5;stroke-width:1.5;"/>
   </g>
   <g id="line2d_57">
    <path clip-path="url(#p777ffe75ad)" d="M 98.674631 298.107166 
L 117.169605 284.350019 
L 135.66458 270.870283 
L 154.159555 257.667834 
L 172.434351 244.894784 
L 190.709148 232.392199 
L 208.983944 220.159938 
L 227.038563 208.340371 
L 245.093181 196.784364 
L 263.147799 185.491764 
L 281.202417 174.462413 
L 299.036857 163.825857 
L 316.871297 153.445841 
L 334.705737 143.322195 
L 352.540177 133.454741 
L 370.374617 123.843298 
L 387.988879 114.601621 
L 405.60314 105.609301 
L 423.217402 96.866149 
L 440.831664 88.371966 
L 458.445925 80.126551 
L 475.840009 72.228123 
L 493.234092 64.571876 
L 510.628176 57.157598 
L 528.022259 49.985077 
L 538.810994 45.65768 
L 538.810994 45.65768 
" style="fill:none;stroke:#87ceeb;stroke-linecap:square;stroke-opacity:0.5;stroke-width:1.5;"/>
   </g>
   <g id="line2d_58">
    <path clip-path="url(#p777ffe75ad)" d="M 98.674631 299.004109 
L 117.83014 284.780987 
L 136.98565 270.836599 
L 155.920981 257.325749 
L 174.856312 244.085903 
L 193.791644 231.11639 
L 212.726975 218.416548 
L 231.662306 205.985718 
L 250.377459 193.963129 
L 269.092612 182.202066 
L 287.807765 170.701906 
L 306.522918 159.462031 
L 325.238071 148.481826 
L 343.953225 137.760683 
L 362.668378 127.297996 
L 381.163352 117.211725 
L 399.658327 107.376702 
L 418.153302 97.792354 
L 436.648277 88.458115 
L 455.143251 79.373421 
L 473.638226 70.537711 
L 492.133201 61.95043 
L 510.407997 53.708848 
L 528.682794 45.708747 
L 538.810994 41.378765 
L 538.810994 41.378765 
" style="fill:none;stroke:#87ceeb;stroke-linecap:square;stroke-opacity:0.5;stroke-width:1.5;"/>
   </g>
   <g id="line2d_59">
    <path clip-path="url(#p777ffe75ad)" d="M 98.674631 287.055057 
L 129.27941 267.48784 
L 159.88419 248.185792 
L 190.48897 229.14797 
L 221.093749 210.373444 
L 251.698529 191.861296 
L 282.08313 173.740991 
L 312.467732 155.877541 
L 342.852333 138.270087 
L 373.236935 120.917781 
L 403.621536 103.819791 
L 434.006137 86.975293 
L 464.390739 70.383478 
L 494.77534 54.043547 
L 525.159942 37.954714 
L 538.810994 30.807939 
L 538.810994 30.807939 
" style="fill:none;stroke:#87ceeb;stroke-linecap:square;stroke-opacity:0.5;stroke-width:1.5;"/>
   </g>
   <g id="line2d_60">
    <path clip-path="url(#p777ffe75ad)" d="M 98.674631 288.706277 
L 120.692458 273.852463 
L 142.710285 259.267058 
L 164.728112 244.949278 
L 186.745939 230.898351 
L 208.543588 217.250052 
L 230.341237 203.861826 
L 252.138886 190.73296 
L 273.936534 177.862752 
L 295.734183 165.250511 
L 317.531832 152.895559 
L 339.329481 140.797229 
L 361.12713 128.954862 
L 382.7046 117.483581 
L 404.282071 106.261873 
L 425.859541 95.289132 
L 447.437012 84.564764 
L 469.014482 74.088187 
L 490.591953 63.858825 
L 512.169424 53.876118 
L 533.746894 44.139511 
L 538.810994 41.889987 
L 538.810994 41.889987 
" style="fill:none;stroke:#87ceeb;stroke-linecap:square;stroke-opacity:0.5;stroke-width:1.5;"/>
   </g>
   <g id="line2d_61">
    <path clip-path="url(#p777ffe75ad)" d="M 98.674631 281.573369 
L 149.976168 250.985255 
L 201.497883 220.524481 
L 253.239777 190.192405 
L 304.981671 160.117806 
L 356.943743 130.172418 
L 408.905814 100.482848 
L 461.088065 70.923018 
L 513.490493 41.494271 
L 538.810994 27.365797 
L 538.810994 27.365797 
" style="fill:none;stroke:#87ceeb;stroke-linecap:square;stroke-opacity:0.5;stroke-width:1.5;"/>
   </g>
   <g id="line2d_62">
    <path clip-path="url(#p777ffe75ad)" d="M 98.674631 275.235605 
L 166.929895 236.823629 
L 235.185159 198.666847 
L 303.440423 160.764839 
L 371.695687 123.117191 
L 439.950951 85.723501 
L 508.206215 48.583372 
L 538.810994 32.012452 
L 538.810994 32.012452 
" style="fill:none;stroke:#87ceeb;stroke-linecap:square;stroke-opacity:0.5;stroke-width:1.5;"/>
   </g>
   <g id="line2d_63">
    <path clip-path="url(#p777ffe75ad)" d="M 98.674631 290.365066 
L 118.931032 276.332231 
L 139.187433 262.569359 
L 159.443833 249.075484 
L 179.700234 235.849656 
L 199.956635 222.890932 
L 220.213036 210.198379 
L 240.249259 197.904732 
L 260.285482 185.869717 
L 280.321704 174.092458 
L 300.357927 162.572092 
L 320.39415 151.307762 
L 340.430372 140.298622 
L 360.466595 129.543834 
L 380.502818 119.042567 
L 400.53904 108.794003 
L 420.575263 98.797327 
L 440.391307 89.15747 
L 460.207352 79.762441 
L 480.023396 70.611479 
L 499.83944 61.703829 
L 519.655485 53.038745 
L 538.810994 44.892376 
L 538.810994 44.892376 
" style="fill:none;stroke:#87ceeb;stroke-linecap:square;stroke-opacity:0.5;stroke-width:1.5;"/>
   </g>
   <g id="line2d_64">
    <path clip-path="url(#p777ffe75ad)" d="M 98.674631 279.962438 
L 142.710285 253.878743 
L 186.966117 227.922305 
L 231.442128 202.094077 
L 276.138317 176.394993 
L 321.054684 150.825973 
L 366.19123 125.387919 
L 411.547954 100.081721 
L 457.124856 74.90825 
L 502.701758 49.98814 
L 538.810994 30.42271 
L 538.810994 30.42271 
" style="fill:none;stroke:#87ceeb;stroke-linecap:square;stroke-opacity:0.5;stroke-width:1.5;"/>
   </g>
   <g id="line2d_65">
    <path clip-path="url(#p777ffe75ad)" d="M 98.674631 296.877826 
L 118.270497 282.589357 
L 137.866363 268.577674 
L 157.242051 254.99568 
L 176.617739 241.684518 
L 195.993426 228.644297 
L 215.148936 216.018704 
L 234.304446 203.658133 
L 253.459955 191.562681 
L 272.395286 179.866914 
L 291.330618 168.430384 
L 310.265949 157.253175 
L 329.20128 146.335369 
L 347.916433 135.799486 
L 366.631586 125.517156 
L 385.346739 115.488449 
L 404.061892 105.713432 
L 422.556867 96.302707 
L 441.051842 87.13986 
L 459.546817 78.224945 
L 478.041792 69.558017 
L 496.316588 61.237891 
L 514.591385 53.159978 
L 532.866181 45.324322 
L 538.810994 42.827601 
L 538.810994 42.827601 
" style="fill:none;stroke:#87ceeb;stroke-linecap:square;stroke-opacity:0.5;stroke-width:1.5;"/>
   </g>
   <g id="line2d_66">
    <path clip-path="url(#p777ffe75ad)" d="M 98.674631 292.623618 
L 122.453884 276.324316 
L 146.233137 260.295679 
L 169.792212 244.683411 
L 193.351287 229.338887 
L 216.690184 214.402793 
L 240.029081 199.731494 
L 263.147799 185.460666 
L 286.266518 171.451658 
L 309.165058 157.835144 
L 332.063598 144.477448 
L 354.74196 131.504252 
L 377.420322 118.786845 
L 399.878505 106.445932 
L 422.336689 94.357753 
L 444.794873 82.523257 
L 467.032878 71.055684 
L 489.270883 59.838707 
L 511.28871 48.980593 
L 533.306538 38.369964 
L 538.810994 35.756084 
L 538.810994 35.756084 
" style="fill:none;stroke:#87ceeb;stroke-linecap:square;stroke-opacity:0.5;stroke-width:1.5;"/>
   </g>
   <g id="line2d_67">
    <path clip-path="url(#p777ffe75ad)" d="M 98.674631 297.287719 
L 118.270497 282.963752 
L 137.866363 268.916174 
L 157.242051 255.298267 
L 176.617739 241.950751 
L 195.993426 228.873722 
L 215.148936 216.211291 
L 234.304446 203.813442 
L 253.459955 191.680285 
L 272.615465 179.811937 
L 291.550796 168.340387 
L 310.486127 157.127833 
L 329.421459 146.174404 
L 348.136612 135.603091 
L 366.851765 125.285172 
L 385.566918 115.220783 
L 404.282071 105.410064 
L 422.777046 95.964116 
L 441.27202 86.766189 
L 459.766995 77.816429 
L 478.26197 69.114984 
L 496.536766 60.761179 
L 514.811563 52.650113 
L 533.086359 44.78194 
L 538.810994 42.367197 
L 538.810994 42.367197 
" style="fill:none;stroke:#87ceeb;stroke-linecap:square;stroke-opacity:0.5;stroke-width:1.5;"/>
   </g>
   <g id="line2d_68">
    <path clip-path="url(#p777ffe75ad)" d="M 98.674631 290.156138 
L 135.444402 266.464973 
L 172.214173 243.037542 
L 209.204123 219.733375 
L 246.194072 196.69101 
L 283.4042 173.773106 
L 320.614328 151.115096 
L 358.044634 128.582728 
L 395.695118 106.178104 
L 433.345603 84.032058 
L 471.216265 62.014888 
L 509.086928 40.254414 
L 538.810994 23.353213 
L 538.810994 23.353213 
" style="fill:none;stroke:#87ceeb;stroke-linecap:square;stroke-opacity:0.5;stroke-width:1.5;"/>
   </g>
   <g id="line2d_69">
    <path clip-path="url(#p777ffe75ad)" d="M 98.674631 291.340026 
L 118.050319 277.663961 
L 137.205828 264.413628 
L 156.361338 251.431949 
L 175.516847 238.71881 
L 194.672357 226.274107 
L 213.607688 214.236179 
L 232.543019 202.460373 
L 251.478351 190.946614 
L 270.413682 179.694832 
L 289.128835 168.831253 
L 307.843988 158.223484 
L 326.559141 147.871482 
L 345.274294 137.775209 
L 363.769269 128.048919 
L 382.264244 118.572323 
L 400.759218 109.345403 
L 419.254193 100.368148 
L 437.52899 91.742981 
L 455.803786 83.361562 
L 474.078583 75.223893 
L 492.353379 67.329983 
L 510.628176 59.679843 
L 528.682794 52.361271 
L 538.810994 48.359918 
L 538.810994 48.359918 
" style="fill:none;stroke:#87ceeb;stroke-linecap:square;stroke-opacity:0.5;stroke-width:1.5;"/>
   </g>
   <g id="line2d_70">
    <path clip-path="url(#p777ffe75ad)" d="M 98.674631 297.478999 
L 118.490675 283.037664 
L 138.306719 268.870322 
L 158.122764 254.975727 
L 177.938808 241.352641 
L 197.754853 227.999835 
L 217.570897 214.91609 
L 237.386941 202.100193 
L 257.202986 189.550943 
L 277.01903 177.267145 
L 296.614896 165.379716 
L 316.210762 153.749576 
L 335.806628 142.375594 
L 355.402495 131.256647 
L 374.998361 120.391621 
L 394.594227 109.779409 
L 414.190093 99.418913 
L 433.785959 89.30904 
L 453.381825 79.448706 
L 472.977691 69.836836 
L 492.573557 60.472359 
L 512.169424 51.354216 
L 531.76529 42.48135 
L 538.810994 39.350854 
L 538.810994 39.350854 
" style="fill:none;stroke:#87ceeb;stroke-linecap:square;stroke-opacity:0.5;stroke-width:1.5;"/>
   </g>
   <g id="line2d_71">
    <path clip-path="url(#p777ffe75ad)" d="M 98.674631 283.717083 
L 168.030786 241.992977 
L 237.166763 200.660087 
L 306.082562 159.717569 
L 374.778182 119.16457 
L 443.033446 79.128953 
L 511.068532 39.479442 
L 538.810994 23.385683 
L 538.810994 23.385683 
" style="fill:none;stroke:#87ceeb;stroke-linecap:square;stroke-opacity:0.5;stroke-width:1.5;"/>
   </g>
   <g id="line2d_72">
    <path clip-path="url(#p777ffe75ad)" d="M 98.674631 302.303442 
L 117.609962 287.910683 
L 136.545293 273.794981 
L 155.480625 259.956355 
L 174.415956 246.39482 
L 193.131109 233.263263 
L 211.846262 220.402406 
L 230.561415 207.812249 
L 249.05639 195.636148 
L 267.551365 183.724403 
L 286.046339 172.076999 
L 304.541314 160.693922 
L 322.816111 149.70596 
L 341.090907 138.976022 
L 359.365703 128.504079 
L 377.6405 118.290099 
L 395.695118 108.452461 
L 413.749736 98.866532 
L 431.804355 89.532268 
L 449.858973 80.449622 
L 467.693413 71.724723 
L 485.527853 63.245241 
L 503.362293 55.011119 
L 521.196733 47.022296 
L 538.810994 39.372815 
L 538.810994 39.372815 
" style="fill:none;stroke:#87ceeb;stroke-linecap:square;stroke-opacity:0.5;stroke-width:1.5;"/>
   </g>
   <g id="line2d_73">
    <path clip-path="url(#p777ffe75ad)" d="M 98.674631 286.476182 
L 121.132814 271.626795 
L 143.590998 257.042977 
L 166.049182 242.723705 
L 188.507365 228.667966 
L 210.965549 214.87476 
L 233.423733 201.343101 
L 255.881916 188.072014 
L 278.3401 175.060537 
L 300.798283 162.307719 
L 323.256467 149.812624 
L 345.494472 137.693064 
L 367.732478 125.8244 
L 389.970483 114.205755 
L 412.208489 102.836262 
L 434.446494 91.715068 
L 456.684499 80.841325 
L 478.922505 70.214201 
L 501.16051 59.83287 
L 523.398515 49.69652 
L 538.810994 42.814635 
L 538.810994 42.814635 
" style="fill:none;stroke:#87ceeb;stroke-linecap:square;stroke-opacity:0.5;stroke-width:1.5;"/>
   </g>
   <g id="line2d_74">
    <path clip-path="url(#p777ffe75ad)" d="M 98.674631 296.386408 
L 117.83014 282.382971 
L 136.765472 268.814012 
L 155.700803 255.517118 
L 174.636134 242.49241 
L 193.351287 229.886726 
L 212.06644 217.547163 
L 230.781593 205.47383 
L 249.496746 193.666832 
L 267.991721 182.260493 
L 286.486696 171.114455 
L 304.981671 160.228811 
L 323.256467 149.728609 
L 341.531264 139.482809 
L 359.80606 129.491494 
L 378.080857 119.754741 
L 396.135475 110.385353 
L 414.190093 101.264575 
L 432.244711 92.392474 
L 450.299329 83.769116 
L 468.133769 75.495192 
L 485.968209 67.4641 
L 503.802649 59.675894 
L 521.637089 52.130628 
L 538.810994 45.094472 
L 538.810994 45.094472 
" style="fill:none;stroke:#87ceeb;stroke-linecap:square;stroke-opacity:0.5;stroke-width:1.5;"/>
   </g>
   <g id="line2d_75">
    <path clip-path="url(#p777ffe75ad)" d="M 98.674631 297.636042 
L 119.811745 282.388647 
L 140.948859 267.416685 
L 162.085973 252.718947 
L 183.223087 238.294239 
L 204.140022 224.287408 
L 225.056958 210.545661 
L 245.973894 197.067877 
L 266.89083 183.85295 
L 287.807765 170.899784 
L 308.724701 158.207296 
L 329.641637 145.774413 
L 350.558573 133.600077 
L 371.475508 121.683237 
L 392.392444 110.022856 
L 413.30938 98.617908 
L 434.226316 87.467377 
L 455.143251 76.570258 
L 476.060187 65.925557 
L 496.977123 55.53229 
L 517.894059 45.389483 
L 538.590816 35.599019 
L 538.810994 35.496175 
L 538.810994 35.496175 
" style="fill:none;stroke:#87ceeb;stroke-linecap:square;stroke-opacity:0.5;stroke-width:1.5;"/>
   </g>
   <g id="line2d_76">
    <path clip-path="url(#p777ffe75ad)" d="M 98.674631 280.305822 
L 151.517416 249.142625 
L 204.580379 218.108271 
L 257.863521 187.203393 
L 311.36684 156.428615 
L 365.090339 125.784555 
L 419.034015 95.271823 
L 472.977691 65.014004 
L 527.141546 34.886649 
L 538.810994 28.428875 
L 538.810994 28.428875 
" style="fill:none;stroke:#87ceeb;stroke-linecap:square;stroke-opacity:0.5;stroke-width:1.5;"/>
   </g>
   <g id="line2d_77">
    <path clip-path="url(#p777ffe75ad)" d="M 98.674631 298.851657 
L 118.270497 284.323671 
L 137.646185 270.234749 
L 157.021872 256.420327 
L 171.773817 246.086728 
L 171.993995 246.215442 
L 191.149504 233.044337 
L 210.305014 220.141775 
L 229.460524 207.507967 
L 248.395855 195.28372 
L 267.331186 183.322495 
L 286.266518 171.624495 
L 304.981671 160.321368 
L 323.696824 149.275774 
L 342.411977 138.487908 
L 361.12713 127.957965 
L 379.622104 117.805485 
L 398.117079 107.905273 
L 416.612054 98.257516 
L 435.107029 88.862403 
L 453.381825 79.827469 
L 471.656622 71.03956 
L 489.931418 62.498859 
L 508.206215 54.205543 
L 526.260833 46.255255 
L 538.810994 40.871288 
L 538.810994 40.871288 
" style="fill:none;stroke:#87ceeb;stroke-linecap:square;stroke-opacity:0.5;stroke-width:1.5;"/>
   </g>
   <g id="line2d_78">
    <path clip-path="url(#p777ffe75ad)" d="M 98.674631 283.352365 
L 157.902586 247.733981 
L 217.350719 212.242354 
L 277.239208 176.747128 
L 337.347876 141.379883 
L 397.896901 106.012125 
L 458.666104 70.773508 
L 519.655485 35.663665 
L 538.810994 24.688903 
L 538.810994 24.688903 
" style="fill:none;stroke:#87ceeb;stroke-linecap:square;stroke-opacity:0.5;stroke-width:1.5;"/>
   </g>
   <g id="patch_3">
    <path d="M 76.667813 318.5 
L 76.667813 7.2 
" style="fill:none;stroke:#000000;stroke-linecap:square;stroke-linejoin:miter;stroke-width:0.8;"/>
   </g>
   <g id="patch_4">
    <path d="M 560.817812 318.5 
L 560.817812 7.2 
" style="fill:none;stroke:#000000;stroke-linecap:square;stroke-linejoin:miter;stroke-width:0.8;"/>
   </g>
   <g id="patch_5">
    <path d="M 76.667812 318.5 
L 560.817813 318.5 
" style="fill:none;stroke:#000000;stroke-linecap:square;stroke-linejoin:miter;stroke-width:0.8;"/>
   </g>
   <g id="patch_6">
    <path d="M 76.667812 7.2 
L 560.817813 7.2 
" style="fill:none;stroke:#000000;stroke-linecap:square;stroke-linejoin:miter;stroke-width:0.8;"/>
   </g>
  </g>
  <g id="axes_2">
   <g id="patch_7">
    <path d="M 76.667813 661.6 
L 560.817812 661.6 
L 560.817812 350.3 
L 76.667813 350.3 
z
" style="fill:#ffffff;"/>
   </g>
   <g id="matplotlib.axis_3">
    <g id="xtick_10">
     <g id="line2d_79">
      <path clip-path="url(#pf1c8ef6ae8)" d="M 93.172926 661.6 
L 93.172926 350.3 
" style="fill:none;stroke:#b0b0b0;stroke-dasharray:0.8,1.32;stroke-dashoffset:0;stroke-width:0.8;"/>
     </g>
     <g id="line2d_80">
      <g>
       <use style="stroke:#000000;stroke-width:0.8;" x="93.172926" xlink:href="#mb664c23a79" y="661.6"/>
      </g>
     </g>
     <g id="text_16">
      <!-- 1995 -->
      <g transform="translate(75.357926 679.237813)scale(0.14 -0.14)">
       <use xlink:href="#DejaVuSans-49"/>
       <use x="63.623047" xlink:href="#DejaVuSans-57"/>
       <use x="127.246094" xlink:href="#DejaVuSans-57"/>
       <use x="190.869141" xlink:href="#DejaVuSans-53"/>
      </g>
     </g>
    </g>
    <g id="xtick_11">
     <g id="line2d_81">
      <path clip-path="url(#pf1c8ef6ae8)" d="M 148.189972 661.6 
L 148.189972 350.3 
" style="fill:none;stroke:#b0b0b0;stroke-dasharray:0.8,1.32;stroke-dashoffset:0;stroke-width:0.8;"/>
     </g>
     <g id="line2d_82">
      <g>
       <use style="stroke:#000000;stroke-width:0.8;" x="148.189972" xlink:href="#mb664c23a79" y="661.6"/>
      </g>
     </g>
     <g id="text_17">
      <!-- 2000 -->
      <g transform="translate(130.374972 679.237813)scale(0.14 -0.14)">
       <use xlink:href="#DejaVuSans-50"/>
       <use x="63.623047" xlink:href="#DejaVuSans-48"/>
       <use x="127.246094" xlink:href="#DejaVuSans-48"/>
       <use x="190.869141" xlink:href="#DejaVuSans-48"/>
      </g>
     </g>
    </g>
    <g id="xtick_12">
     <g id="line2d_83">
      <path clip-path="url(#pf1c8ef6ae8)" d="M 203.207017 661.6 
L 203.207017 350.3 
" style="fill:none;stroke:#b0b0b0;stroke-dasharray:0.8,1.32;stroke-dashoffset:0;stroke-width:0.8;"/>
     </g>
     <g id="line2d_84">
      <g>
       <use style="stroke:#000000;stroke-width:0.8;" x="203.207017" xlink:href="#mb664c23a79" y="661.6"/>
      </g>
     </g>
     <g id="text_18">
      <!-- 2005 -->
      <g transform="translate(185.392017 679.237813)scale(0.14 -0.14)">
       <use xlink:href="#DejaVuSans-50"/>
       <use x="63.623047" xlink:href="#DejaVuSans-48"/>
       <use x="127.246094" xlink:href="#DejaVuSans-48"/>
       <use x="190.869141" xlink:href="#DejaVuSans-53"/>
      </g>
     </g>
    </g>
    <g id="xtick_13">
     <g id="line2d_85">
      <path clip-path="url(#pf1c8ef6ae8)" d="M 258.224063 661.6 
L 258.224063 350.3 
" style="fill:none;stroke:#b0b0b0;stroke-dasharray:0.8,1.32;stroke-dashoffset:0;stroke-width:0.8;"/>
     </g>
     <g id="line2d_86">
      <g>
       <use style="stroke:#000000;stroke-width:0.8;" x="258.224063" xlink:href="#mb664c23a79" y="661.6"/>
      </g>
     </g>
     <g id="text_19">
      <!-- 2010 -->
      <g transform="translate(240.409063 679.237813)scale(0.14 -0.14)">
       <use xlink:href="#DejaVuSans-50"/>
       <use x="63.623047" xlink:href="#DejaVuSans-48"/>
       <use x="127.246094" xlink:href="#DejaVuSans-49"/>
       <use x="190.869141" xlink:href="#DejaVuSans-48"/>
      </g>
     </g>
    </g>
    <g id="xtick_14">
     <g id="line2d_87">
      <path clip-path="url(#pf1c8ef6ae8)" d="M 313.241108 661.6 
L 313.241108 350.3 
" style="fill:none;stroke:#b0b0b0;stroke-dasharray:0.8,1.32;stroke-dashoffset:0;stroke-width:0.8;"/>
     </g>
     <g id="line2d_88">
      <g>
       <use style="stroke:#000000;stroke-width:0.8;" x="313.241108" xlink:href="#mb664c23a79" y="661.6"/>
      </g>
     </g>
     <g id="text_20">
      <!-- 2015 -->
      <g transform="translate(295.426108 679.237813)scale(0.14 -0.14)">
       <use xlink:href="#DejaVuSans-50"/>
       <use x="63.623047" xlink:href="#DejaVuSans-48"/>
       <use x="127.246094" xlink:href="#DejaVuSans-49"/>
       <use x="190.869141" xlink:href="#DejaVuSans-53"/>
      </g>
     </g>
    </g>
    <g id="xtick_15">
     <g id="line2d_89">
      <path clip-path="url(#pf1c8ef6ae8)" d="M 368.258153 661.6 
L 368.258153 350.3 
" style="fill:none;stroke:#b0b0b0;stroke-dasharray:0.8,1.32;stroke-dashoffset:0;stroke-width:0.8;"/>
     </g>
     <g id="line2d_90">
      <g>
       <use style="stroke:#000000;stroke-width:0.8;" x="368.258153" xlink:href="#mb664c23a79" y="661.6"/>
      </g>
     </g>
     <g id="text_21">
      <!-- 2020 -->
      <g transform="translate(350.443153 679.237813)scale(0.14 -0.14)">
       <use xlink:href="#DejaVuSans-50"/>
       <use x="63.623047" xlink:href="#DejaVuSans-48"/>
       <use x="127.246094" xlink:href="#DejaVuSans-50"/>
       <use x="190.869141" xlink:href="#DejaVuSans-48"/>
      </g>
     </g>
    </g>
    <g id="xtick_16">
     <g id="line2d_91">
      <path clip-path="url(#pf1c8ef6ae8)" d="M 423.275199 661.6 
L 423.275199 350.3 
" style="fill:none;stroke:#b0b0b0;stroke-dasharray:0.8,1.32;stroke-dashoffset:0;stroke-width:0.8;"/>
     </g>
     <g id="line2d_92">
      <g>
       <use style="stroke:#000000;stroke-width:0.8;" x="423.275199" xlink:href="#mb664c23a79" y="661.6"/>
      </g>
     </g>
     <g id="text_22">
      <!-- 2025 -->
      <g transform="translate(405.460199 679.237813)scale(0.14 -0.14)">
       <use xlink:href="#DejaVuSans-50"/>
       <use x="63.623047" xlink:href="#DejaVuSans-48"/>
       <use x="127.246094" xlink:href="#DejaVuSans-50"/>
       <use x="190.869141" xlink:href="#DejaVuSans-53"/>
      </g>
     </g>
    </g>
    <g id="xtick_17">
     <g id="line2d_93">
      <path clip-path="url(#pf1c8ef6ae8)" d="M 478.292244 661.6 
L 478.292244 350.3 
" style="fill:none;stroke:#b0b0b0;stroke-dasharray:0.8,1.32;stroke-dashoffset:0;stroke-width:0.8;"/>
     </g>
     <g id="line2d_94">
      <g>
       <use style="stroke:#000000;stroke-width:0.8;" x="478.292244" xlink:href="#mb664c23a79" y="661.6"/>
      </g>
     </g>
     <g id="text_23">
      <!-- 2030 -->
      <g transform="translate(460.477244 679.237813)scale(0.14 -0.14)">
       <use xlink:href="#DejaVuSans-50"/>
       <use x="63.623047" xlink:href="#DejaVuSans-48"/>
       <use x="127.246094" xlink:href="#DejaVuSans-51"/>
       <use x="190.869141" xlink:href="#DejaVuSans-48"/>
      </g>
     </g>
    </g>
    <g id="xtick_18">
     <g id="line2d_95">
      <path clip-path="url(#pf1c8ef6ae8)" d="M 533.30929 661.6 
L 533.30929 350.3 
" style="fill:none;stroke:#b0b0b0;stroke-dasharray:0.8,1.32;stroke-dashoffset:0;stroke-width:0.8;"/>
     </g>
     <g id="line2d_96">
      <g>
       <use style="stroke:#000000;stroke-width:0.8;" x="533.30929" xlink:href="#mb664c23a79" y="661.6"/>
      </g>
     </g>
     <g id="text_24">
      <!-- 2035 -->
      <g transform="translate(515.49429 679.237813)scale(0.14 -0.14)">
       <use xlink:href="#DejaVuSans-50"/>
       <use x="63.623047" xlink:href="#DejaVuSans-48"/>
       <use x="127.246094" xlink:href="#DejaVuSans-51"/>
       <use x="190.869141" xlink:href="#DejaVuSans-53"/>
      </g>
     </g>
    </g>
    <g id="text_25">
     <!-- Years -->
     <defs>
      <path d="M -0.203125 72.90625 
L 10.40625 72.90625 
L 30.609375 42.921875 
L 50.6875 72.90625 
L 61.28125 72.90625 
L 35.5 34.71875 
L 35.5 0 
L 25.59375 0 
L 25.59375 34.71875 
z
" id="DejaVuSans-89"/>
      <path d="M 56.203125 29.59375 
L 56.203125 25.203125 
L 14.890625 25.203125 
Q 15.484375 15.921875 20.484375 11.0625 
Q 25.484375 6.203125 34.421875 6.203125 
Q 39.59375 6.203125 44.453125 7.46875 
Q 49.3125 8.734375 54.109375 11.28125 
L 54.109375 2.78125 
Q 49.265625 0.734375 44.1875 -0.34375 
Q 39.109375 -1.421875 33.890625 -1.421875 
Q 20.796875 -1.421875 13.15625 6.1875 
Q 5.515625 13.8125 5.515625 26.8125 
Q 5.515625 40.234375 12.765625 48.109375 
Q 20.015625 56 32.328125 56 
Q 43.359375 56 49.78125 48.890625 
Q 56.203125 41.796875 56.203125 29.59375 
z
M 47.21875 32.234375 
Q 47.125 39.59375 43.09375 43.984375 
Q 39.0625 48.390625 32.421875 48.390625 
Q 24.90625 48.390625 20.390625 44.140625 
Q 15.875 39.890625 15.1875 32.171875 
z
" id="DejaVuSans-101"/>
      <path d="M 41.109375 46.296875 
Q 39.59375 47.171875 37.8125 47.578125 
Q 36.03125 48 33.890625 48 
Q 26.265625 48 22.1875 43.046875 
Q 18.109375 38.09375 18.109375 28.8125 
L 18.109375 0 
L 9.078125 0 
L 9.078125 54.6875 
L 18.109375 54.6875 
L 18.109375 46.1875 
Q 20.953125 51.171875 25.484375 53.578125 
Q 30.03125 56 36.53125 56 
Q 37.453125 56 38.578125 55.875 
Q 39.703125 55.765625 41.0625 55.515625 
z
" id="DejaVuSans-114"/>
     </defs>
     <g transform="translate(293.677656 700.586406)scale(0.19 -0.19)">
      <use xlink:href="#DejaVuSans-89"/>
      <use x="47.833984" xlink:href="#DejaVuSans-101"/>
      <use x="109.357422" xlink:href="#DejaVuSans-97"/>
      <use x="170.636719" xlink:href="#DejaVuSans-114"/>
      <use x="211.75" xlink:href="#DejaVuSans-115"/>
     </g>
    </g>
   </g>
   <g id="matplotlib.axis_4">
    <g id="ytick_6">
     <g id="line2d_97">
      <path clip-path="url(#pf1c8ef6ae8)" d="M 76.667813 634.902366 
L 560.817812 634.902366 
" style="fill:none;stroke:#b0b0b0;stroke-dasharray:0.8,1.32;stroke-dashoffset:0;stroke-width:0.8;"/>
     </g>
     <g id="line2d_98">
      <g>
       <use style="stroke:#000000;stroke-width:0.8;" x="76.667813" xlink:href="#me0f6513002" y="634.902366"/>
      </g>
     </g>
     <g id="text_26">
      <!-- 347.4 -->
      <defs>
       <path d="M 8.203125 72.90625 
L 55.078125 72.90625 
L 55.078125 68.703125 
L 28.609375 0 
L 18.3125 0 
L 43.21875 64.59375 
L 8.203125 64.59375 
z
" id="DejaVuSans-55"/>
       <path d="M 10.6875 12.40625 
L 21 12.40625 
L 21 0 
L 10.6875 0 
z
" id="DejaVuSans-46"/>
      </defs>
      <g transform="translate(29.588438 640.221273)scale(0.14 -0.14)">
       <use xlink:href="#DejaVuSans-51"/>
       <use x="63.623047" xlink:href="#DejaVuSans-52"/>
       <use x="127.246094" xlink:href="#DejaVuSans-55"/>
       <use x="190.869141" xlink:href="#DejaVuSans-46"/>
       <use x="222.65625" xlink:href="#DejaVuSans-52"/>
      </g>
     </g>
    </g>
    <g id="ytick_7">
     <g id="line2d_99">
      <path clip-path="url(#pf1c8ef6ae8)" d="M 76.667813 585.338125 
L 560.817812 585.338125 
" style="fill:none;stroke:#b0b0b0;stroke-dasharray:0.8,1.32;stroke-dashoffset:0;stroke-width:0.8;"/>
     </g>
     <g id="line2d_100">
      <g>
       <use style="stroke:#000000;stroke-width:0.8;" x="76.667813" xlink:href="#me0f6513002" y="585.338125"/>
      </g>
     </g>
     <g id="text_27">
      <!-- 347.5 -->
      <g transform="translate(29.588438 590.657031)scale(0.14 -0.14)">
       <use xlink:href="#DejaVuSans-51"/>
       <use x="63.623047" xlink:href="#DejaVuSans-52"/>
       <use x="127.246094" xlink:href="#DejaVuSans-55"/>
       <use x="190.869141" xlink:href="#DejaVuSans-46"/>
       <use x="222.65625" xlink:href="#DejaVuSans-53"/>
      </g>
     </g>
    </g>
    <g id="ytick_8">
     <g id="line2d_101">
      <path clip-path="url(#pf1c8ef6ae8)" d="M 76.667813 535.773883 
L 560.817812 535.773883 
" style="fill:none;stroke:#b0b0b0;stroke-dasharray:0.8,1.32;stroke-dashoffset:0;stroke-width:0.8;"/>
     </g>
     <g id="line2d_102">
      <g>
       <use style="stroke:#000000;stroke-width:0.8;" x="76.667813" xlink:href="#me0f6513002" y="535.773883"/>
      </g>
     </g>
     <g id="text_28">
      <!-- 347.6 -->
      <g transform="translate(29.588438 541.092789)scale(0.14 -0.14)">
       <use xlink:href="#DejaVuSans-51"/>
       <use x="63.623047" xlink:href="#DejaVuSans-52"/>
       <use x="127.246094" xlink:href="#DejaVuSans-55"/>
       <use x="190.869141" xlink:href="#DejaVuSans-46"/>
       <use x="222.65625" xlink:href="#DejaVuSans-54"/>
      </g>
     </g>
    </g>
    <g id="ytick_9">
     <g id="line2d_103">
      <path clip-path="url(#pf1c8ef6ae8)" d="M 76.667813 486.209641 
L 560.817812 486.209641 
" style="fill:none;stroke:#b0b0b0;stroke-dasharray:0.8,1.32;stroke-dashoffset:0;stroke-width:0.8;"/>
     </g>
     <g id="line2d_104">
      <g>
       <use style="stroke:#000000;stroke-width:0.8;" x="76.667813" xlink:href="#me0f6513002" y="486.209641"/>
      </g>
     </g>
     <g id="text_29">
      <!-- 347.7 -->
      <g transform="translate(29.588438 491.528547)scale(0.14 -0.14)">
       <use xlink:href="#DejaVuSans-51"/>
       <use x="63.623047" xlink:href="#DejaVuSans-52"/>
       <use x="127.246094" xlink:href="#DejaVuSans-55"/>
       <use x="190.869141" xlink:href="#DejaVuSans-46"/>
       <use x="222.65625" xlink:href="#DejaVuSans-55"/>
      </g>
     </g>
    </g>
    <g id="ytick_10">
     <g id="line2d_105">
      <path clip-path="url(#pf1c8ef6ae8)" d="M 76.667813 436.645399 
L 560.817812 436.645399 
" style="fill:none;stroke:#b0b0b0;stroke-dasharray:0.8,1.32;stroke-dashoffset:0;stroke-width:0.8;"/>
     </g>
     <g id="line2d_106">
      <g>
       <use style="stroke:#000000;stroke-width:0.8;" x="76.667813" xlink:href="#me0f6513002" y="436.645399"/>
      </g>
     </g>
     <g id="text_30">
      <!-- 347.8 -->
      <g transform="translate(29.588438 441.964306)scale(0.14 -0.14)">
       <use xlink:href="#DejaVuSans-51"/>
       <use x="63.623047" xlink:href="#DejaVuSans-52"/>
       <use x="127.246094" xlink:href="#DejaVuSans-55"/>
       <use x="190.869141" xlink:href="#DejaVuSans-46"/>
       <use x="222.65625" xlink:href="#DejaVuSans-56"/>
      </g>
     </g>
    </g>
    <g id="ytick_11">
     <g id="line2d_107">
      <path clip-path="url(#pf1c8ef6ae8)" d="M 76.667813 387.081158 
L 560.817812 387.081158 
" style="fill:none;stroke:#b0b0b0;stroke-dasharray:0.8,1.32;stroke-dashoffset:0;stroke-width:0.8;"/>
     </g>
     <g id="line2d_108">
      <g>
       <use style="stroke:#000000;stroke-width:0.8;" x="76.667813" xlink:href="#me0f6513002" y="387.081158"/>
      </g>
     </g>
     <g id="text_31">
      <!-- 347.9 -->
      <g transform="translate(29.588438 392.400064)scale(0.14 -0.14)">
       <use xlink:href="#DejaVuSans-51"/>
       <use x="63.623047" xlink:href="#DejaVuSans-52"/>
       <use x="127.246094" xlink:href="#DejaVuSans-55"/>
       <use x="190.869141" xlink:href="#DejaVuSans-46"/>
       <use x="222.65625" xlink:href="#DejaVuSans-57"/>
      </g>
     </g>
    </g>
    <g id="text_32">
     <!-- P.A. (deg) -->
     <defs>
      <path d="M 19.671875 64.796875 
L 19.671875 37.40625 
L 32.078125 37.40625 
Q 38.96875 37.40625 42.71875 40.96875 
Q 46.484375 44.53125 46.484375 51.125 
Q 46.484375 57.671875 42.71875 61.234375 
Q 38.96875 64.796875 32.078125 64.796875 
z
M 9.8125 72.90625 
L 32.078125 72.90625 
Q 44.34375 72.90625 50.609375 67.359375 
Q 56.890625 61.8125 56.890625 51.125 
Q 56.890625 40.328125 50.609375 34.8125 
Q 44.34375 29.296875 32.078125 29.296875 
L 19.671875 29.296875 
L 19.671875 0 
L 9.8125 0 
z
" id="DejaVuSans-80"/>
      <path d="M 34.1875 63.1875 
L 20.796875 26.90625 
L 47.609375 26.90625 
z
M 28.609375 72.90625 
L 39.796875 72.90625 
L 67.578125 0 
L 57.328125 0 
L 50.6875 18.703125 
L 17.828125 18.703125 
L 11.1875 0 
L 0.78125 0 
z
" id="DejaVuSans-65"/>
      <path d="M 45.40625 46.390625 
L 45.40625 75.984375 
L 54.390625 75.984375 
L 54.390625 0 
L 45.40625 0 
L 45.40625 8.203125 
Q 42.578125 3.328125 38.25 0.953125 
Q 33.9375 -1.421875 27.875 -1.421875 
Q 17.96875 -1.421875 11.734375 6.484375 
Q 5.515625 14.40625 5.515625 27.296875 
Q 5.515625 40.1875 11.734375 48.09375 
Q 17.96875 56 27.875 56 
Q 33.9375 56 38.25 53.625 
Q 42.578125 51.265625 45.40625 46.390625 
z
M 14.796875 27.296875 
Q 14.796875 17.390625 18.875 11.75 
Q 22.953125 6.109375 30.078125 6.109375 
Q 37.203125 6.109375 41.296875 11.75 
Q 45.40625 17.390625 45.40625 27.296875 
Q 45.40625 37.203125 41.296875 42.84375 
Q 37.203125 48.484375 30.078125 48.484375 
Q 22.953125 48.484375 18.875 42.84375 
Q 14.796875 37.203125 14.796875 27.296875 
z
" id="DejaVuSans-100"/>
      <path d="M 45.40625 27.984375 
Q 45.40625 37.75 41.375 43.109375 
Q 37.359375 48.484375 30.078125 48.484375 
Q 22.859375 48.484375 18.828125 43.109375 
Q 14.796875 37.75 14.796875 27.984375 
Q 14.796875 18.265625 18.828125 12.890625 
Q 22.859375 7.515625 30.078125 7.515625 
Q 37.359375 7.515625 41.375 12.890625 
Q 45.40625 18.265625 45.40625 27.984375 
z
M 54.390625 6.78125 
Q 54.390625 -7.171875 48.1875 -13.984375 
Q 42 -20.796875 29.203125 -20.796875 
Q 24.46875 -20.796875 20.265625 -20.09375 
Q 16.0625 -19.390625 12.109375 -17.921875 
L 12.109375 -9.1875 
Q 16.0625 -11.328125 19.921875 -12.34375 
Q 23.78125 -13.375 27.78125 -13.375 
Q 36.625 -13.375 41.015625 -8.765625 
Q 45.40625 -4.15625 45.40625 5.171875 
L 45.40625 9.625 
Q 42.625 4.78125 38.28125 2.390625 
Q 33.9375 0 27.875 0 
Q 17.828125 0 11.671875 7.65625 
Q 5.515625 15.328125 5.515625 27.984375 
Q 5.515625 40.671875 11.671875 48.328125 
Q 17.828125 56 27.875 56 
Q 33.9375 56 38.28125 53.609375 
Q 42.625 51.21875 45.40625 46.390625 
L 45.40625 54.6875 
L 54.390625 54.6875 
z
" id="DejaVuSans-103"/>
     </defs>
     <g transform="translate(21.637031 550.904297)rotate(-90)scale(0.19 -0.19)">
      <use xlink:href="#DejaVuSans-80"/>
      <use x="44.677734" xlink:href="#DejaVuSans-46"/>
      <use x="76.464844" xlink:href="#DejaVuSans-65"/>
      <use x="143.123047" xlink:href="#DejaVuSans-46"/>
      <use x="174.910156" xlink:href="#DejaVuSans-32"/>
      <use x="206.697266" xlink:href="#DejaVuSans-40"/>
      <use x="245.710938" xlink:href="#DejaVuSans-100"/>
      <use x="309.1875" xlink:href="#DejaVuSans-101"/>
      <use x="370.710938" xlink:href="#DejaVuSans-103"/>
      <use x="434.1875" xlink:href="#DejaVuSans-41"/>
     </g>
    </g>
   </g>
   <g id="line2d_109">
    <path clip-path="url(#pf1c8ef6ae8)" d="M 98.674631 382.706099 
L 181.241482 429.517114 
L 264.028512 476.198 
L 347.255899 522.871773 
L 430.703463 569.413838 
L 514.371206 615.824098 
L 538.810994 629.332944 
L 538.810994 629.332944 
" style="fill:none;stroke:#87ceeb;stroke-linecap:square;stroke-opacity:0.5;stroke-width:1.5;"/>
   </g>
   <g id="line2d_110">
    <path clip-path="url(#pf1c8ef6ae8)" d="M 98.674631 421.114832 
L 189.828435 456.842801 
L 284.505091 493.711272 
L 383.144957 531.882617 
L 486.408566 571.602814 
L 538.810994 591.672735 
L 538.810994 591.672735 
" style="fill:none;stroke:#87ceeb;stroke-linecap:square;stroke-opacity:0.5;stroke-width:1.5;"/>
   </g>
   <g id="line2d_111">
    <path clip-path="url(#pf1c8ef6ae8)" d="M 98.674631 399.452059 
L 176.837917 437.847772 
L 259.404768 478.156945 
L 347.255899 520.796157 
L 441.932555 566.497997 
L 538.810994 613.035838 
L 538.810994 613.035838 
" style="fill:none;stroke:#87ceeb;stroke-linecap:square;stroke-opacity:0.5;stroke-width:1.5;"/>
   </g>
   <g id="line2d_112">
    <path clip-path="url(#pf1c8ef6ae8)" d="M 98.674631 393.832302 
L 179.700234 435.652268 
L 263.147799 478.47104 
L 349.237503 522.394402 
L 438.409703 567.639107 
L 528.242437 612.9787 
L 531.324933 614.522405 
L 538.810994 618.293146 
L 538.810994 618.293146 
" style="fill:none;stroke:#87ceeb;stroke-linecap:square;stroke-opacity:0.5;stroke-width:1.5;"/>
   </g>
   <g id="line2d_113">
    <path clip-path="url(#pf1c8ef6ae8)" d="M 98.674631 395.634895 
L 183.443265 438.676563 
L 268.652256 481.692069 
L 354.301603 524.680727 
L 440.391307 567.641888 
L 527.141546 610.683863 
L 538.810994 616.454889 
L 538.810994 616.454889 
" style="fill:none;stroke:#87ceeb;stroke-linecap:square;stroke-opacity:0.5;stroke-width:1.5;"/>
   </g>
   <g id="line2d_114">
    <path clip-path="url(#pf1c8ef6ae8)" d="M 98.674631 413.182465 
L 184.984513 450.142948 
L 275.697961 488.745748 
L 371.695687 529.353429 
L 474.078583 572.417888 
L 538.810994 599.530691 
L 538.810994 599.530691 
" style="fill:none;stroke:#87ceeb;stroke-linecap:square;stroke-opacity:0.5;stroke-width:1.5;"/>
   </g>
   <g id="line2d_115">
    <path clip-path="url(#pf1c8ef6ae8)" d="M 98.674631 389.536402 
L 176.617739 431.327222 
L 256.542451 473.927286 
L 338.228589 517.213397 
L 384.466026 541.605719 
L 384.686205 535.612392 
L 473.858404 582.002669 
L 538.810994 615.646002 
L 538.810994 615.646002 
" style="fill:none;stroke:#87ceeb;stroke-linecap:square;stroke-opacity:0.5;stroke-width:1.5;"/>
   </g>
   <g id="line2d_116">
    <path clip-path="url(#pf1c8ef6ae8)" d="M 98.674631 399.952454 
L 183.223087 441.287675 
L 269.092612 483.020609 
L 356.283208 525.147919 
L 445.015051 567.772034 
L 535.067964 610.783568 
L 538.810994 612.566067 
L 538.810994 612.566067 
" style="fill:none;stroke:#87ceeb;stroke-linecap:square;stroke-opacity:0.5;stroke-width:1.5;"/>
   </g>
   <g id="line2d_117">
    <path clip-path="url(#pf1c8ef6ae8)" d="M 98.674631 405.282714 
L 182.122195 444.03591 
L 269.092612 484.178415 
L 360.026238 525.903256 
L 455.36343 569.402242 
L 538.810994 607.289077 
L 538.810994 607.289077 
" style="fill:none;stroke:#87ceeb;stroke-linecap:square;stroke-opacity:0.5;stroke-width:1.5;"/>
   </g>
   <g id="line2d_118">
    <path clip-path="url(#pf1c8ef6ae8)" d="M 98.674631 396.595828 
L 183.002908 439.072952 
L 267.771543 481.523014 
L 353.200712 524.055066 
L 439.290416 566.66702 
L 525.820476 609.248837 
L 538.810994 615.620284 
L 538.810994 615.620284 
" style="fill:none;stroke:#87ceeb;stroke-linecap:square;stroke-opacity:0.5;stroke-width:1.5;"/>
   </g>
   <g id="line2d_119">
    <path clip-path="url(#pf1c8ef6ae8)" d="M 98.674631 371.367564 
L 168.911499 414.917264 
L 242.230863 460.114889 
L 319.07308 507.220642 
L 399.878505 556.493126 
L 485.748031 608.59052 
L 538.810994 640.663117 
L 538.810994 640.663117 
" style="fill:none;stroke:#87ceeb;stroke-linecap:square;stroke-opacity:0.5;stroke-width:1.5;"/>
   </g>
   <g id="line2d_120">
    <path clip-path="url(#pf1c8ef6ae8)" d="M 98.674631 397.045712 
L 175.076491 435.621188 
L 255.001203 475.724466 
L 294.413114 495.412757 
L 294.633292 494.958582 
L 380.282639 537.477405 
L 471.436443 582.477501 
L 538.810994 615.591351 
L 538.810994 615.591351 
" style="fill:none;stroke:#87ceeb;stroke-linecap:square;stroke-opacity:0.5;stroke-width:1.5;"/>
   </g>
   <g id="line2d_121">
    <path clip-path="url(#pf1c8ef6ae8)" d="M 98.674631 376.915464 
L 167.590429 417.882826 
L 242.67122 462.236214 
L 321.274863 508.410368 
L 404.061892 556.781459 
L 491.692844 607.722693 
L 538.810994 635.013816 
L 538.810994 635.013816 
" style="fill:none;stroke:#87ceeb;stroke-linecap:square;stroke-opacity:0.5;stroke-width:1.5;"/>
   </g>
   <g id="line2d_122">
    <path clip-path="url(#pf1c8ef6ae8)" d="M 98.674631 370.070705 
L 175.957204 418.351748 
L 254.12049 466.920215 
L 333.384668 515.910087 
L 413.529558 565.182774 
L 494.77534 614.871485 
L 538.810994 641.696015 
L 538.810994 641.696015 
" style="fill:none;stroke:#87ceeb;stroke-linecap:square;stroke-opacity:0.5;stroke-width:1.5;"/>
   </g>
   <g id="line2d_123">
    <path clip-path="url(#pf1c8ef6ae8)" d="M 98.674631 404.522711 
L 180.801126 442.922266 
L 266.670651 482.824002 
L 354.74196 523.525729 
L 446.556299 565.71075 
L 538.810994 607.866033 
L 538.810994 607.866033 
" style="fill:none;stroke:#87ceeb;stroke-linecap:square;stroke-opacity:0.5;stroke-width:1.5;"/>
   </g>
   <g id="line2d_124">
    <path clip-path="url(#pf1c8ef6ae8)" d="M 98.674631 391.561864 
L 172.874708 430.67734 
L 250.157281 471.16485 
L 331.403063 513.475407 
L 417.272589 557.940367 
L 508.866749 605.116079 
L 538.810994 620.488056 
L 538.810994 620.488056 
" style="fill:none;stroke:#87ceeb;stroke-linecap:square;stroke-opacity:0.5;stroke-width:1.5;"/>
   </g>
   <g id="line2d_125">
    <path clip-path="url(#pf1c8ef6ae8)" d="M 98.674631 410.152896 
L 179.920413 446.04752 
L 264.689047 483.253816 
L 353.42089 521.955129 
L 446.996655 562.524792 
L 538.810994 602.113775 
L 538.810994 602.113775 
" style="fill:none;stroke:#87ceeb;stroke-linecap:square;stroke-opacity:0.5;stroke-width:1.5;"/>
   </g>
   <g id="line2d_126">
    <path clip-path="url(#pf1c8ef6ae8)" d="M 98.674631 401.051172 
L 180.801126 440.781569 
L 267.111008 482.28669 
L 358.48499 525.978126 
L 456.244143 572.473213 
L 538.810994 611.5678 
L 538.810994 611.5678 
" style="fill:none;stroke:#87ceeb;stroke-linecap:square;stroke-opacity:0.5;stroke-width:1.5;"/>
   </g>
   <g id="line2d_127">
    <path clip-path="url(#pf1c8ef6ae8)" d="M 98.674631 390.760722 
L 175.076491 431.318175 
L 254.340668 473.141666 
L 337.127698 516.570375 
L 423.877937 561.82474 
L 515.472098 609.352837 
L 538.810994 621.425332 
L 538.810994 621.425332 
" style="fill:none;stroke:#87ceeb;stroke-linecap:square;stroke-opacity:0.5;stroke-width:1.5;"/>
   </g>
   <g id="line2d_128">
    <path clip-path="url(#pf1c8ef6ae8)" d="M 98.674631 393.617463 
L 182.78273 437.140727 
L 267.111008 480.52743 
L 351.659464 523.777833 
L 436.648277 567.003867 
L 521.857267 610.092863 
L 538.810994 618.636578 
L 538.810994 618.636578 
" style="fill:none;stroke:#87ceeb;stroke-linecap:square;stroke-opacity:0.5;stroke-width:1.5;"/>
   </g>
   <g id="line2d_129">
    <path clip-path="url(#pf1c8ef6ae8)" d="M 98.674631 395.502691 
L 182.78273 438.3052 
L 268.211899 481.52988 
L 354.74196 525.062164 
L 442.59309 569.009882 
L 531.76529 613.369381 
L 538.810994 616.863856 
L 538.810994 616.863856 
" style="fill:none;stroke:#87ceeb;stroke-linecap:square;stroke-opacity:0.5;stroke-width:1.5;"/>
   </g>
   <g id="line2d_130">
    <path clip-path="url(#pf1c8ef6ae8)" d="M 98.674631 400.134144 
L 177.498452 438.617996 
L 259.845125 478.572758 
L 346.155007 520.201571 
L 437.308811 563.917826 
L 534.627607 610.341208 
L 538.810994 612.33153 
L 538.810994 612.33153 
" style="fill:none;stroke:#87ceeb;stroke-linecap:square;stroke-opacity:0.5;stroke-width:1.5;"/>
   </g>
   <g id="line2d_131">
    <path clip-path="url(#pf1c8ef6ae8)" d="M 98.674631 395.366642 
L 183.443265 438.550339 
L 268.652256 481.708712 
L 354.081425 524.729342 
L 439.730772 567.612306 
L 525.820476 610.466973 
L 538.810994 616.912002 
L 538.810994 616.912002 
" style="fill:none;stroke:#87ceeb;stroke-linecap:square;stroke-opacity:0.5;stroke-width:1.5;"/>
   </g>
   <g id="line2d_132">
    <path clip-path="url(#pf1c8ef6ae8)" d="M 98.674631 412.279396 
L 190.268791 451.823669 
L 282.303309 491.315305 
L 374.778182 530.75338 
L 467.693413 570.136988 
L 538.810994 600.118833 
L 538.810994 600.118833 
" style="fill:none;stroke:#87ceeb;stroke-linecap:square;stroke-opacity:0.5;stroke-width:1.5;"/>
   </g>
   <g id="line2d_133">
    <path clip-path="url(#pf1c8ef6ae8)" d="M 98.674631 408.292991 
L 182.342374 445.973651 
L 271.074217 485.688378 
L 365.750873 527.81759 
L 468.353948 573.227367 
L 538.810994 604.283716 
L 538.810994 604.283716 
" style="fill:none;stroke:#87ceeb;stroke-linecap:square;stroke-opacity:0.5;stroke-width:1.5;"/>
   </g>
   <g id="line2d_134">
    <path clip-path="url(#pf1c8ef6ae8)" d="M 98.674631 405.402645 
L 184.1038 445.034642 
L 270.854039 485.033997 
L 359.145525 525.498504 
L 448.97826 566.424121 
L 538.810994 607.111427 
L 538.810994 607.111427 
" style="fill:none;stroke:#87ceeb;stroke-linecap:square;stroke-opacity:0.5;stroke-width:1.5;"/>
   </g>
   <g id="line2d_135">
    <path clip-path="url(#pf1c8ef6ae8)" d="M 98.674631 394.102656 
L 176.177382 434.066279 
L 257.423164 475.707891 
L 343.29269 519.467456 
L 434.88685 565.892347 
L 533.967072 615.859124 
L 538.810994 618.295965 
L 538.810994 618.295965 
" style="fill:none;stroke:#87ceeb;stroke-linecap:square;stroke-opacity:0.5;stroke-width:1.5;"/>
   </g>
   <g id="line2d_136">
    <path clip-path="url(#pf1c8ef6ae8)" d="M 98.674631 393.092305 
L 177.058095 433.804467 
L 257.863521 475.522652 
L 341.090907 518.239732 
L 427.180611 562.174671 
L 516.572989 607.543787 
L 538.810994 618.792715 
L 538.810994 618.792715 
" style="fill:none;stroke:#87ceeb;stroke-linecap:square;stroke-opacity:0.5;stroke-width:1.5;"/>
   </g>
   <g id="line2d_137">
    <path clip-path="url(#pf1c8ef6ae8)" d="M 98.674631 395.007235 
L 174.856312 434.026474 
L 255.001203 474.823505 
L 339.769837 517.721786 
L 430.263107 563.26446 
L 528.022259 612.211426 
L 538.810994 617.599019 
L 538.810994 617.599019 
" style="fill:none;stroke:#87ceeb;stroke-linecap:square;stroke-opacity:0.5;stroke-width:1.5;"/>
   </g>
   <g id="line2d_138">
    <path clip-path="url(#pf1c8ef6ae8)" d="M 98.674631 383.580645 
L 172.434351 425.154737 
L 249.496746 468.333455 
L 330.52235 513.475984 
L 416.391876 561.059885 
L 507.986036 611.558961 
L 538.810994 628.500502 
L 538.810994 628.500502 
" style="fill:none;stroke:#87ceeb;stroke-linecap:square;stroke-opacity:0.5;stroke-width:1.5;"/>
   </g>
   <g id="line2d_139">
    <path clip-path="url(#pf1c8ef6ae8)" d="M 98.674631 406.943223 
L 185.865226 446.760055 
L 275.257604 487.336863 
L 367.071943 528.767892 
L 461.528421 571.146268 
L 538.810994 605.644795 
L 538.810994 605.644795 
" style="fill:none;stroke:#87ceeb;stroke-linecap:square;stroke-opacity:0.5;stroke-width:1.5;"/>
   </g>
   <g id="line2d_140">
    <path clip-path="url(#pf1c8ef6ae8)" d="M 98.674631 406.88054 
L 184.984513 446.315529 
L 275.477782 487.415104 
L 370.814974 530.467935 
L 472.096978 575.958562 
L 538.810994 605.799465 
L 538.810994 605.799465 
" style="fill:none;stroke:#87ceeb;stroke-linecap:square;stroke-opacity:0.5;stroke-width:1.5;"/>
   </g>
   <g id="line2d_141">
    <path clip-path="url(#pf1c8ef6ae8)" d="M 98.674631 407.948999 
L 187.406474 448.062762 
L 277.01903 488.33064 
L 367.732478 528.849289 
L 459.546817 569.615669 
L 538.810994 604.616694 
L 538.810994 604.616694 
" style="fill:none;stroke:#87ceeb;stroke-linecap:square;stroke-opacity:0.5;stroke-width:1.5;"/>
   </g>
   <g id="line2d_142">
    <path clip-path="url(#pf1c8ef6ae8)" d="M 98.674631 402.435714 
L 189.1679 445.602739 
L 280.321704 488.838489 
L 372.356221 532.245704 
L 465.271452 575.821905 
L 538.810994 610.13864 
L 538.810994 610.13864 
" style="fill:none;stroke:#87ceeb;stroke-linecap:square;stroke-opacity:0.5;stroke-width:1.5;"/>
   </g>
   <g id="line2d_143">
    <path clip-path="url(#pf1c8ef6ae8)" d="M 98.674631 386.684847 
L 176.177382 429.229567 
L 257.202986 473.452515 
L 342.191798 519.583467 
L 432.024533 568.08873 
L 527.802081 619.548849 
L 538.810994 625.448507 
L 538.810994 625.448507 
" style="fill:none;stroke:#87ceeb;stroke-linecap:square;stroke-opacity:0.5;stroke-width:1.5;"/>
   </g>
   <g id="line2d_144">
    <path clip-path="url(#pf1c8ef6ae8)" d="M 98.674631 398.459203 
L 184.544156 441.003636 
L 271.514573 483.844867 
L 359.585882 526.980509 
L 448.97826 570.515255 
L 538.810994 614.019906 
L 538.810994 614.019906 
" style="fill:none;stroke:#87ceeb;stroke-linecap:square;stroke-opacity:0.5;stroke-width:1.5;"/>
   </g>
   <g id="line2d_145">
    <path clip-path="url(#pf1c8ef6ae8)" d="M 98.674631 393.480246 
L 175.296669 433.183233 
L 255.221381 474.34558 
L 339.329481 517.41053 
L 428.501681 562.816129 
L 524.05905 611.220197 
L 538.810994 618.671791 
L 538.810994 618.671791 
" style="fill:none;stroke:#87ceeb;stroke-linecap:square;stroke-opacity:0.5;stroke-width:1.5;"/>
   </g>
   <g id="line2d_146">
    <path clip-path="url(#pf1c8ef6ae8)" d="M 98.674631 408.675255 
L 182.122195 446.139174 
L 268.652256 484.741583 
L 358.48499 524.572461 
L 452.280934 565.916022 
L 538.810994 603.854782 
L 538.810994 603.854782 
" style="fill:none;stroke:#87ceeb;stroke-linecap:square;stroke-opacity:0.5;stroke-width:1.5;"/>
   </g>
   <g id="line2d_147">
    <path clip-path="url(#pf1c8ef6ae8)" d="M 98.674631 389.45029 
L 176.617739 431.240026 
L 258.303877 474.782239 
L 344.393581 520.417562 
L 435.767564 568.600064 
L 533.746894 620.011619 
L 538.810994 622.662402 
L 538.810994 622.662402 
" style="fill:none;stroke:#87ceeb;stroke-linecap:square;stroke-opacity:0.5;stroke-width:1.5;"/>
   </g>
   <g id="line2d_148">
    <path clip-path="url(#pf1c8ef6ae8)" d="M 98.674631 373.700024 
L 174.856312 420.108041 
L 252.138886 466.92617 
L 330.742528 514.283903 
L 410.447062 562.044969 
L 491.472666 610.33798 
L 538.810994 638.434869 
L 538.810994 638.434869 
" style="fill:none;stroke:#87ceeb;stroke-linecap:square;stroke-opacity:0.5;stroke-width:1.5;"/>
   </g>
   <g id="line2d_149">
    <path clip-path="url(#pf1c8ef6ae8)" d="M 98.674631 408.374864 
L 185.645048 447.477168 
L 277.899743 488.709199 
L 376.539609 532.548677 
L 483.105892 579.664462 
L 538.810994 604.204672 
L 538.810994 604.204672 
" style="fill:none;stroke:#87ceeb;stroke-linecap:square;stroke-opacity:0.5;stroke-width:1.5;"/>
   </g>
   <g id="line2d_150">
    <path clip-path="url(#pf1c8ef6ae8)" d="M 98.674631 389.332725 
L 173.975599 429.795503 
L 252.579242 471.779123 
L 334.925915 515.508 
L 421.676154 561.321114 
L 513.490493 609.554852 
L 538.810994 622.81497 
L 538.810994 622.81497 
" style="fill:none;stroke:#87ceeb;stroke-linecap:square;stroke-opacity:0.5;stroke-width:1.5;"/>
   </g>
   <g id="line2d_151">
    <path clip-path="url(#pf1c8ef6ae8)" d="M 98.674631 397.47277 
L 183.443265 439.806675 
L 268.872434 482.221993 
L 354.962138 524.717085 
L 441.712377 567.290401 
L 529.12315 609.940472 
L 538.810994 614.652326 
L 538.810994 614.652326 
" style="fill:none;stroke:#87ceeb;stroke-linecap:square;stroke-opacity:0.5;stroke-width:1.5;"/>
   </g>
   <g id="line2d_152">
    <path clip-path="url(#pf1c8ef6ae8)" d="M 98.674631 383.566272 
L 171.113282 424.395078 
L 246.854607 466.828303 
L 326.338963 511.10152 
L 410.447062 557.692865 
L 500.059619 607.076459 
L 538.810994 628.358425 
L 538.810994 628.358425 
" style="fill:none;stroke:#87ceeb;stroke-linecap:square;stroke-opacity:0.5;stroke-width:1.5;"/>
   </g>
   <g id="line2d_153">
    <path clip-path="url(#pf1c8ef6ae8)" d="M 98.674631 395.457079 
L 180.801126 437.241515 
L 266.230295 480.455276 
L 355.622673 525.422559 
L 449.418616 572.354056 
L 538.810994 616.866728 
L 538.810994 616.866728 
" style="fill:none;stroke:#87ceeb;stroke-linecap:square;stroke-opacity:0.5;stroke-width:1.5;"/>
   </g>
   <g id="line2d_154">
    <path clip-path="url(#pf1c8ef6ae8)" d="M 98.674631 404.882417 
L 178.379165 442.071974 
L 262.267086 480.965945 
L 350.998929 521.857928 
L 445.675586 565.241923 
L 538.810994 607.70414 
L 538.810994 607.70414 
" style="fill:none;stroke:#87ceeb;stroke-linecap:square;stroke-opacity:0.5;stroke-width:1.5;"/>
   </g>
   <g id="line2d_155">
    <path clip-path="url(#pf1c8ef6ae8)" d="M 98.674631 395.584753 
L 176.617739 435.252931 
L 257.643342 476.239208 
L 342.411977 518.867926 
L 431.363998 563.349429 
L 525.38012 610.111975 
L 538.810994 616.77293 
L 538.810994 616.77293 
" style="fill:none;stroke:#87ceeb;stroke-linecap:square;stroke-opacity:0.5;stroke-width:1.5;"/>
   </g>
   <g id="line2d_156">
    <path clip-path="url(#pf1c8ef6ae8)" d="M 98.674631 364.45 
L 176.39756 415.02116 
L 254.781025 465.75667 
L 333.825024 516.655135 
L 413.749736 567.855915 
L 494.334984 619.215625 
L 538.810994 647.45 
L 538.810994 647.45 
" style="fill:none;stroke:#87ceeb;stroke-linecap:square;stroke-opacity:0.5;stroke-width:1.5;"/>
   </g>
   <g id="line2d_157">
    <path clip-path="url(#pf1c8ef6ae8)" d="M 98.674631 381.373856 
L 171.773817 423.445391 
L 171.993995 423.339141 
L 247.955498 466.761233 
L 327.660032 512.064824 
L 411.768132 559.61326 
L 501.380688 610.015264 
L 538.810994 630.99718 
L 538.810994 630.99718 
" style="fill:none;stroke:#87ceeb;stroke-linecap:square;stroke-opacity:0.5;stroke-width:1.5;"/>
   </g>
   <g id="line2d_158">
    <path clip-path="url(#pf1c8ef6ae8)" d="M 98.674631 392.108051 
L 181.681839 435.593765 
L 265.349582 479.174455 
L 349.898038 522.962661 
L 435.107029 566.842261 
L 520.976554 610.812186 
L 538.810994 619.913383 
L 538.810994 619.913383 
" style="fill:none;stroke:#87ceeb;stroke-linecap:square;stroke-opacity:0.5;stroke-width:1.5;"/>
   </g>
   <g id="patch_8">
    <path d="M 76.667813 661.6 
L 76.667813 350.3 
" style="fill:none;stroke:#000000;stroke-linecap:square;stroke-linejoin:miter;stroke-width:0.8;"/>
   </g>
   <g id="patch_9">
    <path d="M 560.817812 661.6 
L 560.817812 350.3 
" style="fill:none;stroke:#000000;stroke-linecap:square;stroke-linejoin:miter;stroke-width:0.8;"/>
   </g>
   <g id="patch_10">
    <path d="M 76.667812 661.6 
L 560.817813 661.6 
" style="fill:none;stroke:#000000;stroke-linecap:square;stroke-linejoin:miter;stroke-width:0.8;"/>
   </g>
   <g id="patch_11">
    <path d="M 76.667812 350.3 
L 560.817813 350.3 
" style="fill:none;stroke:#000000;stroke-linecap:square;stroke-linejoin:miter;stroke-width:0.8;"/>
   </g>
  </g>
 </g>
 <defs>
  <clipPath id="p777ffe75ad">
   <rect height="311.3" width="484.15" x="76.667813" y="7.2"/>
  </clipPath>
  <clipPath id="pf1c8ef6ae8">
   <rect height="311.3" width="484.15" x="76.667813" y="350.3"/>
  </clipPath>
 </defs>
</svg>
